<?xml version="1.0" encoding="utf-8"?>
<!-- Generator: Adobe Illustrator 19.1.0, SVG Export Plug-In . SVG Version: 6.00 Build 0)  -->
<svg version="1.1" id="Capa_1" xmlns="http://www.w3.org/2000/svg" xmlns:xlink="http://www.w3.org/1999/xlink" x="0px" y="0px"
	 viewBox="-363 539.5 114.6 112.1" style="enable-background:new -363 539.5 114.6 112.1;" xml:space="preserve">
<style type="text/css">
	.st0{fill:#28349C;}
	.st1{fill:#C1C1C1;}
	.st2{fill:#217ABA;}
	.st3{fill:#555555;}
	.st4{fill:#FFFFFF;}
</style>
<g>
	<circle class="st0" cx="-307.7" cy="598.5" r="36.4"/>
	<path class="st1" d="M-339,580l-5.2-3.1c7.6-12.8,21.6-20.8,36.5-20.8c7.4,0,14.6,1.9,21,5.5l-3,5.2c-5.5-3.1-11.7-4.8-18-4.8
		C-320.5,562.3-332.5,569-339,580z"/>
	<path class="st2" d="M-308.2,643.9c-12.2,0-24.4-5.7-32.7-15l2.9-2.8c7.5,8.3,18.7,13.6,29.7,13.6c10.6,0,21.3-4.1,28.9-11.8
		l2.8,2.9C-284.8,639.4-296.5,643.9-308.2,643.9z"/>
	<path class="st3" d="M-273.4,634.4l-3.5-3.6c8.5-8.3,14.4-19.8,14.4-31.7c0-12.1-4.7-24.3-13.6-32.6l3.4-3.7
		c9.9,9.2,15.3,22.7,15.3,36.3C-257.3,612.2-264,625-273.4,634.4z"/>
	<path class="st1" d="M-307.9,651.4c-14.8,0-28.9-6.2-38.9-17.1l5.9-5.4c8.5,9.2,20.5,14.5,33,14.5c11.7,0,22.8-4.5,31.2-12.6
		l5.6,5.7C-281.1,646.2-294.1,651.4-307.9,651.4z"/>
	<path class="st1" d="M-267,640.7l-6.4-6.4c9.3-9.3,16-22.1,16-35.3c0-13.5-6.3-26-16-35.4l6.9-7.4c11.5,11.1,18.1,26.8,18.1,42.7
		C-248.3,614.5-256.1,629.7-267,640.7z"/>
	<g>
		<path d="M-347.5,622.8l-3.2,1.9l-0.3-0.5c-1-1.7-2.3-2.1-3.8-1.2c-1.2,0.7-1.4,1.6-1.3,2.3s0.4,1.3,0.6,1.6l1.2,2l7.7-4.7
			L-347.5,622.8z M-353.9,624.3c0.3-0.1,0.5-0.2,0.7-0.2c0.1,0,0.1,0,0.1,0c0.3,0.1,0.6,0.3,0.8,0.7l0.3,0.5l-1.9,1.2l-0.2-0.3
			c-0.2-0.3-0.4-0.7-0.4-1C-354.5,625-354.5,624.8-353.9,624.3z"/>
		<path d="M-353.8,606.8l-3.6,0.7l-0.1-0.5c-0.2-1,0.1-1.2,1.2-1.7l2.2-0.9l-0.3-1.7l-2.6,1.1c-0.6,0.2-1.2,0.5-1.5,1.1
			c-0.5-0.5-1.1-0.9-2.3-0.7c-1.5,0.3-2.2,1.5-1.9,3.4l0.4,2.4l8.8-1.5L-353.8,606.8z M-358.9,607.8l-2.2,0.4l-0.1-0.3
			c-0.1-0.5-0.2-0.9-0.1-1.3c0.1-0.2,0.2-0.5,0.8-0.6c0.1,0,0.2,0,0.3,0C-359.7,606-359.2,606.3-358.9,607.8L-358.9,607.8z"/>
		<path d="M-354.8,585c-0.6-0.6-1.6-1-2.9-1.2c-3.8-0.7-4.9,0.9-5.2,2.4c-0.3,1.4,0.1,3.4,3.9,4.1c0.6,0.1,1.2,0.2,1.7,0.2
			c2,0,3.3-0.9,3.5-2.6C-353.6,586.5-353.9,585.5-354.8,585z M-356.4,588.5c-0.6,0.1-1.3,0.1-2.2-0.1c-3-0.6-2.8-1.7-2.7-2.1
			c0-0.3,0.2-1.1,1.8-1.1c0.4,0,0.9,0.1,1.5,0.2c2.1,0.4,3,1.1,2.8,2.1C-355.3,588-355.7,588.5-356.4,588.5z"/>
		<path d="M-346.1,568v-0.2l-3.5-2.3l-1.9,3l1.3,0.8l1-1.6l1.6,1c0,0.2-0.1,0.6-0.4,1.1c-0.4,0.6-0.9,0.8-1.7,0.7
			c-0.6-0.1-1.3-0.5-2.2-1c-0.7-0.5-1.2-0.9-1.5-1.4c-0.3-0.6-0.3-1.1,0-1.6c0.6-1,1.5-0.6,1.7-0.4l1-1.5c-0.6-0.5-1.4-0.6-2.1-0.4
			s-1.3,0.7-1.8,1.4c-1.2,1.8-0.5,3.8,1.8,5.3c1.3,0.9,2.4,1.2,3.3,1.2c1.4,0,2.2-0.7,2.7-1.4C-345.9,569.3-346.1,568-346.1,568z"/>
		<path d="M-334.1,554c-0.5-0.5-1-0.9-1.7-0.9c0.3-0.7,0.4-1.4-0.3-2.4c-0.6-0.9-1.4-1.2-2.3-1c-0.5,0.1-1.1,0.3-1.6,0.7l-2,1.4
			l5.3,7.3l1.4-1l-2.2-3l0.4-0.3c0.8-0.5,1.1-0.4,2,0.4l1.7,1.7l1.4-1L-334.1,554z M-338.3,554L-338.3,554l-1.4-1.8l0.2-0.1
			c0.4-0.2,0.7-0.5,1.1-0.6c0.3-0.1,0.5-0.1,0.9,0.4c0.3,0.4,0.4,0.7,0.2,1.1C-337.5,553.3-337.8,553.5-338.3,554z"/>
		<path d="M-319.9,541l-1.6,0.4l-0.5,9.5l1.7-0.5l0.1-2.7l2.3-0.6l1.4,2.3l1.7-0.4L-319.9,541z M-318.8,545.8l-1.4,0.4l0.1-2.5
			L-318.8,545.8z"/>
		<polygon points="-295.7,540.3 -298.7,546.3 -299.9,539.8 -301.9,539.5 -303.2,548.3 -301.6,548.5 -300.8,543.3 -299.8,548.8 
			-298.4,549 -295.8,544 -296.6,549.3 -295,549.5 -293.7,540.5 		"/>
		<path d="M-277,547.3l-7.1,6.2l1.4,1l2-1.8l2.1,1.2l-0.6,2.6l1.5,0.9l2.1-9.2L-277,547.3z M-279.4,551.5l1.8-1.8l-0.6,2.5
			L-279.4,551.5z"/>
	</g>
	<g>
		<path class="st4" d="M-326.5,591.5c0-4.5-3-7.5-7.6-7.5c-7.5,0-8.1,5.5-8.2,6.6v0.4h4.2v-0.4c0-0.6,0.2-3.5,3.8-3.5
			c2.8,0,3.8,2.1,3.8,4.1c0,6.1-9.7,14.7-11.7,16.3l-0.1,0.1v3.2h16v-3.6h-10.8C-333.8,604.5-326.5,598-326.5,591.5z"/>
		<polygon class="st4" points="-307.8,605.3 -315.5,582.3 -320.9,582.3 -320.9,610.8 -317.3,610.8 -317.3,588 -309.7,610.8 
			-306,610.8 -298.3,587.8 -298.3,611 -294.7,611 -294.7,582.3 -300.1,582.3 		"/>
		<path class="st4" d="M-280.7,590.5c-2.4,0-3.9,1.3-4.7,2.6v-2.2h-3.5v28.6h3.5v-10.7c1,1.7,2.6,2.5,4.8,2.5c4.4,0,7-4,7-10.6
			C-273.7,594-276.1,590.5-280.7,590.5z M-277.6,600c0,3.7-0.6,8.1-3.7,8.1c-0.8,0-1.6-0.3-2.2-1c-1.2-1.3-1.9-3.7-1.8-6.6
			c0-2.9,1.1-7.3,4.1-7.3C-278.2,593.5-277.6,597-277.6,600z"/>
	</g>
	<path class="st0" d="M-262.1,598.1c0,12.2-5.6,24.4-14.6,32.7l-2.7-2.9c8.1-7.5,13.3-18.7,13.3-29.7c0-10.6-5-21.5-12.5-29.1
		l2.8-2.8C-267.6,574.5-262.1,586.4-262.1,598.1z"/>
</g>
</svg>
