<?xml version="1.0" encoding="utf-8"?>
<!-- Generator: Adobe Illustrator 19.1.0, SVG Export Plug-In . SVG Version: 6.00 Build 0)  -->
<svg version="1.1" id="Capa_1" xmlns="http://www.w3.org/2000/svg" xmlns:xlink="http://www.w3.org/1999/xlink" x="0px" y="0px"
	 viewBox="-141 496.9 557.6 198.6" style="enable-background:new -141 496.9 557.6 198.6;" xml:space="preserve">
<style type="text/css">
	.st0{fill:#777777;}
	.st1{fill:#010002;}
</style>
<g>
	<g>
		<path class="st0" d="M-29.9,570.6h1.6c1.7,0,2.5-0.4,3.1-2.2l20.8-57H9.1l20.7,57c0.6,1.8,1.4,2.2,3.1,2.2h1.6v11h-7.7
			c-4.9,0-6.7-1.3-8.3-5.7l-4.3-12.2H-9.5l-4.4,12.2c-1.6,4.4-3.3,5.7-8.2,5.7h-7.8V570.6z M11.2,552.9l-6-17.6
			c-1.3-3.9-2.8-10.5-2.8-10.5H2.2c0,0-1.5,6.6-2.8,10.5l-6,17.6H11.2z"/>
		<path class="st0" d="M45.4,522.4H39v-11h32.1c13.1,0,22.3,9.2,22.3,22.8s-9.2,23.1-22.3,23.1H58.4v24.2H45.5v-59.1H45.4z
			 M68.7,546.3c7.3,0,11.5-4.7,11.5-12.1c0-7.2-4.1-11.9-11.3-11.9H58.3v23.9L68.7,546.3L68.7,546.3z"/>
		<path class="st1" d="M158.9,562.8c0,0,7.2,8.3,17,8.3c5.3,0,10.1-2.9,10.1-8.3c0-12-33-11-33-32.8c0-11.4,9.9-19.8,23.4-19.8
			c8.2,0,20.8,3.9,20.8,13.8v6.5h-11.7v-3.2c0-3.3-4.6-5.4-9.3-5.4c-5.9,0-10.3,3.1-10.3,7.5c0,12,33,9.6,33,32.6
			c0,11.2-8.6,20.6-23.3,20.6c-15.5,0-24.1-10.9-24.1-10.9L158.9,562.8z"/>
		<path class="st1" d="M206.4,570.6h7v-48.2h-7v-11h26.3v11h-7v48.2h7v11h-26.3V570.6z"/>
		<path class="st1" d="M275.2,510.3c17.2,0,25.6,8.9,25.6,8.9l-7.3,9.3c0,0-7.3-6.2-18-6.2c-12.2,0-22.5,9.6-22.5,23.8
			c0,15.3,10.5,24.7,23,24.7c11.2,0,17.8-7.3,17.8-7.3v-5.2c0-1.5-0.8-2.2-2.2-2.2h-4.2v-11h11.4c4.7,0,6.7,2,6.7,6.6v29.9h-11.1
			v-3.4c0-1.5,0.1-3,0.1-3h-0.2c0,0-7.5,7.5-20.6,7.5c-18.4,0-34.1-14-34.1-36.6C239.5,526,254.8,510.3,275.2,510.3z"/>
		<rect x="118.2" y="496.9" class="st0" width="3" height="101.2"/>
	</g>
	<g>
		<g>
			<path class="st1" d="M-60.8,649.9h0.4c0.5,0,0.8-0.1,1-0.7l6.7-18.2h3.2l6.7,18.2c0.2,0.5,0.5,0.7,1,0.7h0.5v2.6H-43
				c-1.5,0-2-0.4-2.5-1.8l-1.6-4.4H-55l-1.6,4.4c-0.5,1.4-1,1.8-2.5,1.8h-1.7C-60.8,652.5-60.8,649.9-60.8,649.9z M-47.9,643.8
				l-2.3-6.5c-0.4-1.1-0.9-3-0.9-3h-0.1c0,0-0.4,1.9-0.8,3l-2.3,6.5H-47.9z"/>
			<path class="st1" d="M-38.6,648.2c0,0,1.8,2.3,4.7,2.3c1.4,0,2.7-0.6,2.7-2c0-2.8-8.4-2.5-8.4-7.4c0-3,2.6-4.3,5.7-4.3
				c1.9,0,5.1,0.6,5.1,3v1.5h-2.6v-0.8c0-0.9-1.4-1.3-2.3-1.3c-1.7,0-2.9,0.6-2.9,1.8c0,2.9,8.4,2.3,8.4,7.4c0,2.7-2.4,4.5-5.7,4.5
				c-4.1,0-6.2-2.7-6.2-2.7L-38.6,648.2z"/>
			<path class="st1" d="M-17.8,636.7c4.6,0,8.3,3.4,8.3,8c0,4.7-3.7,8.1-8.3,8.1c-4.6,0-8.3-3.4-8.3-8.1
				C-26,640.1-22.4,636.7-17.8,636.7z M-17.8,650.3c2.9,0,5.3-2.3,5.3-5.5s-2.4-5.5-5.3-5.5s-5.3,2.3-5.3,5.5
				C-23,648-20.7,650.3-17.8,650.3z"/>
			<path class="st1" d="M1,636.7c1.9,0,5.5,0.8,5.5,3.4v1.6H3.8v-0.8c0-1.1-1.7-1.6-2.9-1.6c-3,0-5.3,2.3-5.3,5.5
				c0,3.5,2.6,5.5,5.4,5.5c2.9,0,4.8-2.1,4.8-2.1l1.3,2.1c0,0-2.2,2.6-6.3,2.6c-4.8,0-8.2-3.4-8.2-8.1C-7.3,640.3-3.9,636.7,1,636.7
				z"/>
			<path class="st1" d="M10.6,640.3c0-0.5-0.2-0.7-0.7-0.7H8.7v-2.5h2.9c1.4,0,1.9,0.6,1.9,1.9v10.3c0,0.5,0.2,0.7,0.7,0.7h1.2v2.5
				h-2.9c-1.4,0-1.9-0.6-1.9-1.9V640.3z M10.7,631h2.6v3.1h-2.6V631z"/>
			<path class="st1" d="M26.7,642.9h0.7v-0.2c0-2.7-1-3.7-3.4-3.7c-0.7,0-2.5,0.2-2.5,1.2v0.9h-2.8v-1.5c0-2.5,3.8-2.9,5.3-2.9
				c5,0,6.3,2.6,6.3,6v6.5c0,0.5,0.2,0.7,0.7,0.7h1.2v2.5h-2.8c-1.4,0-1.9-0.7-1.9-1.8c0-0.5,0.1-0.9,0.1-0.9h-0.1c0,0-1.2,3-4.9,3
				c-2.6,0-5.2-1.6-5.2-4.7C17.4,643.2,24.1,642.9,26.7,642.9z M23.2,650.5c2.5,0,4.1-2.6,4.1-4.9v-0.5h-0.8c-2.2,0-6.2,0.1-6.2,3
				C20.4,649.3,21.3,650.5,23.2,650.5z"/>
			<path class="st1" d="M42.2,636.7c1.9,0,5.5,0.8,5.5,3.4v1.6H45v-0.8c0-1.1-1.7-1.6-2.9-1.6c-3,0-5.3,2.3-5.3,5.5
				c0,3.5,2.6,5.5,5.4,5.5c2.9,0,4.8-2.1,4.8-2.1l1.3,2.1c0,0-2.2,2.6-6.3,2.6c-4.8,0-8.2-3.4-8.2-8.1
				C33.9,640.3,37.2,636.7,42.2,636.7z"/>
			<path class="st1" d="M51.8,640.3c0-0.5-0.2-0.7-0.7-0.7h-1.2v-2.5h2.9c1.4,0,1.9,0.6,1.9,1.9v10.3c0,0.5,0.2,0.7,0.7,0.7h1.2v2.5
				h-2.9c-1.4,0-1.9-0.6-1.9-1.9V640.3z M51.8,631h2.6v3.1h-2.6V631z"/>
			<path class="st1" d="M66.8,636.7c4.6,0,8.3,3.4,8.3,8c0,4.7-3.7,8.1-8.3,8.1s-8.3-3.4-8.3-8.1C58.5,640.1,62.2,636.7,66.8,636.7z
				 M66.8,650.3c2.9,0,5.3-2.3,5.3-5.5s-2.4-5.5-5.3-5.5c-2.9,0-5.3,2.3-5.3,5.5S63.9,650.3,66.8,650.3z M67.8,631h3l-2.9,3.9h-2.3
				L67.8,631z"/>
			<path class="st1" d="M78.8,640.3c0-0.5-0.2-0.7-0.7-0.7h-1.2v-2.5h2.8c1.3,0,1.9,0.6,1.9,1.7v0.6c0,0.5-0.1,0.9-0.1,0.9h0.1
				c0.6-1.3,2.4-3.5,5.8-3.5c3.7,0,5.3,2,5.3,5.9v6.7c0,0.5,0.2,0.7,0.7,0.7h1.2v2.5h-2.9c-1.4,0-1.9-0.6-1.9-1.9v-7.2
				c0-2.2-0.4-3.9-2.9-3.9c-2.4,0-4.3,1.6-4.9,3.8c-0.2,0.6-0.3,1.3-0.3,2.1v7.2h-3L78.8,640.3L78.8,640.3z"/>
			<path class="st1" d="M111.5,636.7c3.6,0,4.7,2.4,4.7,2.4h0.1c0,0-0.1-0.5-0.1-1v-3.9c0-0.5-0.2-0.7-0.7-0.7h-1.2V631h2.9
				c1.4,0,1.9,0.6,1.9,1.9v16.4c0,0.5,0.2,0.7,0.7,0.7h1.2v2.5h-2.8c-1.3,0-1.9-0.6-1.9-1.6c0-0.5,0-0.8,0-0.8h-0.1
				c0,0-1.3,2.8-5.1,2.8c-4.2,0-6.8-3.3-6.8-8.1C104.6,639.9,107.5,636.7,111.5,636.7z M116.4,644.8c0-2.7-1.4-5.5-4.4-5.5
				c-2.4,0-4.4,2-4.4,5.5c0,3.3,1.8,5.5,4.4,5.5C114.2,650.3,116.4,648.7,116.4,644.8z"/>
			<path class="st1" d="M130.7,636.7c4.3,0,6.6,3.2,6.6,7.2c0,0.4-0.1,1.2-0.1,1.2H126c0.2,3.3,2.6,5.1,5.3,5.1
				c2.6,0,4.5-1.8,4.5-1.8l1.3,2.1c0,0-2.3,2.3-5.9,2.3c-4.9,0-8.2-3.5-8.2-8.1C123,639.9,126.3,636.7,130.7,636.7z M134.3,643
				c-0.1-2.6-1.7-3.9-3.6-3.9c-2.3,0-4.1,1.4-4.5,3.9H134.3z"/>
			<path class="st1" d="M150,633.6h-2V631h9.5c3.9,0,6.7,2.6,6.7,6.7c0,4.1-2.8,6.8-6.7,6.8H153v7.9h-3V633.6z M157,642
				c2.5,0,4.1-1.6,4.1-4.2c0-2.6-1.6-4.1-4-4.1h-4v8.3H157z"/>
			<path class="st1" d="M167.5,640.3c0-0.5-0.2-0.7-0.7-0.7h-1.2v-2.5h2.8c1.3,0,2,0.5,2,1.8v1c0,0.6-0.1,1.1-0.1,1.1h0.1
				c0.7-2.3,2.5-4,4.9-4c0.4,0,0.8,0.1,0.8,0.1v2.9c0,0-0.4-0.1-0.9-0.1c-1.9,0-3.6,1.3-4.3,3.6c-0.3,0.9-0.4,1.8-0.4,2.8v6.3h-3
				L167.5,640.3L167.5,640.3z"/>
			<path class="st1" d="M185.4,636.7c4.6,0,8.3,3.4,8.3,8c0,4.7-3.7,8.1-8.3,8.1s-8.3-3.4-8.3-8.1
				C177.2,640.1,180.8,636.7,185.4,636.7z M185.4,650.3c2.9,0,5.3-2.3,5.3-5.5s-2.4-5.5-5.3-5.5s-5.3,2.3-5.3,5.5
				C180.2,648,182.6,650.3,185.4,650.3z"/>
			<path class="st1" d="M197.4,639.5h-1.9v-2.4h1.9v-0.5c0-5.1,3.9-5.7,5.8-5.7c0.7,0,1.1,0.1,1.1,0.1v2.5c0,0-0.3-0.1-0.8-0.1
				c-1.2,0-3.2,0.4-3.2,3.2v0.5h3.7v2.4h-3.7v13h-3v-13H197.4z"/>
			<path class="st1" d="M212.9,636.7c4.3,0,6.6,3.2,6.6,7.2c0,0.4-0.1,1.2-0.1,1.2h-11.2c0.2,3.3,2.6,5.1,5.3,5.1
				c2.6,0,4.5-1.8,4.5-1.8l1.3,2.1c0,0-2.3,2.3-5.9,2.3c-4.9,0-8.2-3.5-8.2-8.1C205.2,639.9,208.5,636.7,212.9,636.7z M216.5,643
				c-0.1-2.6-1.7-3.9-3.6-3.9c-2.3,0-4.1,1.4-4.5,3.9H216.5z"/>
			<path class="st1" d="M223.2,648.2c0,0,1.8,2.3,4.7,2.3c1.4,0,2.7-0.6,2.7-2c0-2.8-8.4-2.5-8.4-7.4c0-3,2.6-4.3,5.7-4.3
				c1.9,0,5.1,0.6,5.1,3v1.5h-2.6v-0.8c0-0.9-1.4-1.3-2.3-1.3c-1.7,0-2.9,0.6-2.9,1.8c0,2.9,8.4,2.3,8.4,7.4c0,2.7-2.4,4.5-5.7,4.5
				c-4.1,0-6.1-2.7-6.1-2.7L223.2,648.2z"/>
			<path class="st1" d="M237.5,640.3c0-0.5-0.2-0.7-0.7-0.7h-1.2v-2.5h2.9c1.4,0,1.9,0.6,1.9,1.9v10.3c0,0.5,0.2,0.7,0.7,0.7h1.2
				v2.5h-2.9c-1.4,0-1.9-0.6-1.9-1.9V640.3z M237.5,631h2.6v3.1h-2.6V631z"/>
			<path class="st1" d="M252.5,636.7c4.6,0,8.3,3.4,8.3,8c0,4.7-3.7,8.1-8.3,8.1s-8.3-3.4-8.3-8.1
				C244.2,640.1,247.9,636.7,252.5,636.7z M252.5,650.3c2.9,0,5.3-2.3,5.3-5.5s-2.4-5.5-5.3-5.5s-5.3,2.3-5.3,5.5
				S249.6,650.3,252.5,650.3z"/>
			<path class="st1" d="M264.5,640.3c0-0.5-0.2-0.7-0.7-0.7h-1.2v-2.5h2.8c1.3,0,1.9,0.6,1.9,1.7v0.6c0,0.5-0.1,0.9-0.1,0.9h0.1
				c0.6-1.3,2.4-3.5,5.8-3.5c3.7,0,5.3,2,5.3,5.9v6.7c0,0.5,0.2,0.7,0.7,0.7h1.2v2.5h-2.9c-1.4,0-1.9-0.6-1.9-1.9v-7.2
				c0-2.2-0.4-3.9-2.9-3.9c-2.4,0-4.3,1.6-4.9,3.8c-0.2,0.6-0.3,1.3-0.3,2.1v7.2h-3v-12.4H264.5z"/>
			<path class="st1" d="M291.3,642.9h0.7v-0.2c0-2.7-1-3.7-3.4-3.7c-0.7,0-2.5,0.2-2.5,1.2v0.9h-2.8v-1.5c0-2.5,3.8-2.9,5.3-2.9
				c5,0,6.3,2.6,6.3,6v6.5c0,0.5,0.2,0.7,0.7,0.7h1.2v2.5H294c-1.4,0-1.9-0.7-1.9-1.8c0-0.5,0.1-0.9,0.1-0.9h-0.1c0,0-1.2,3-4.9,3
				c-2.6,0-5.2-1.6-5.2-4.7C282.1,643.2,288.8,642.9,291.3,642.9z M287.9,650.5c2.5,0,4.1-2.6,4.1-4.9v-0.5h-0.8
				c-2.2,0-6.2,0.1-6.2,3C285,649.3,286,650.5,287.9,650.5z"/>
			<path class="st1" d="M300,634.2c0-0.5-0.2-0.7-0.7-0.7h-1.2V631h2.9c1.4,0,1.9,0.6,1.9,1.9v16.4c0,0.5,0.2,0.7,0.7,0.7h1.2v2.5
				H302c-1.4,0-1.9-0.6-1.9-1.9v-16.4H300z"/>
			<path class="st1" d="M314.5,636.7c4.3,0,6.6,3.2,6.6,7.2c0,0.4-0.1,1.2-0.1,1.2h-11.2c0.2,3.3,2.6,5.1,5.3,5.1
				c2.6,0,4.5-1.8,4.5-1.8l1.3,2.1c0,0-2.3,2.3-5.9,2.3c-4.9,0-8.2-3.5-8.2-8.1C306.8,639.9,310.1,636.7,314.5,636.7z M318.1,643
				c-0.1-2.6-1.7-3.9-3.6-3.9c-2.3,0-4.1,1.4-4.5,3.9H318.1z"/>
			<path class="st1" d="M324.8,648.2c0,0,1.8,2.3,4.7,2.3c1.4,0,2.7-0.6,2.7-2c0-2.8-8.4-2.5-8.4-7.4c0-3,2.6-4.3,5.7-4.3
				c1.9,0,5.1,0.6,5.1,3v1.5H332v-0.8c0-0.9-1.4-1.3-2.3-1.3c-1.7,0-2.9,0.6-2.9,1.8c0,2.9,8.4,2.3,8.4,7.4c0,2.7-2.4,4.5-5.7,4.5
				c-4.1,0-6.1-2.7-6.1-2.7L324.8,648.2z"/>
			<path class="st1" d="M-133.3,673.3c4.3,0,6.6,3.2,6.6,7.2c0,0.4-0.1,1.2-0.1,1.2H-138c0.2,3.3,2.6,5.1,5.3,5.1
				c2.6,0,4.5-1.8,4.5-1.8l1.3,2.1c0,0-2.3,2.3-5.9,2.3c-4.9,0-8.2-3.5-8.2-8.1C-141,676.5-137.7,673.3-133.3,673.3z M-129.7,679.6
				c-0.1-2.6-1.7-3.9-3.6-3.9c-2.3,0-4.1,1.4-4.5,3.9H-129.7z"/>
			<path class="st1" d="M-122.7,676.8c0-0.5-0.2-0.7-0.7-0.7h-1.2v-2.5h2.8c1.3,0,1.9,0.6,1.9,1.7v0.6c0,0.5-0.1,0.9-0.1,0.9h0.1
				c0.6-1.3,2.4-3.5,5.8-3.5c3.7,0,5.3,2,5.3,5.9v6.7c0,0.5,0.2,0.7,0.7,0.7h1.2v2.5h-2.9c-1.4,0-1.9-0.6-1.9-1.9v-7.3
				c0-2.2-0.4-3.9-2.9-3.9c-2.4,0-4.3,1.6-4.9,3.8c-0.2,0.6-0.3,1.3-0.3,2.1v7.2h-3v-12.3H-122.7z"/>
			<path class="st1" d="M-95.2,684.1c0,0,2.2,2.6,5.4,2.6c2,0,3.7-1.2,3.7-3.2c0-4.5-10.4-3.8-10.4-10.5c0-3.2,2.8-5.8,6.9-5.8
				c2.3,0,6.1,1,6.1,4v1.8h-2.8v-1c0-1.1-1.6-1.9-3.3-1.9c-2.3,0-3.8,1.3-3.8,2.9c0,4.4,10.4,3.4,10.4,10.4c0,3.3-2.6,6.1-6.8,6.1
				c-4.6,0-7.1-3.2-7.1-3.2L-95.2,684.1z"/>
			<path class="st1" d="M-79.1,676.8c0-0.5-0.2-0.7-0.7-0.7H-81v-2.5h2.9c1.4,0,1.9,0.6,1.9,1.9v10.4c0,0.5,0.2,0.7,0.7,0.7h1.2v2.5
				h-2.9c-1.4,0-1.9-0.6-1.9-1.9C-79.1,687.2-79.1,676.8-79.1,676.8z M-79,667.6h2.6v3.1H-79V667.6z"/>
			<path class="st1" d="M-71.1,684.7c0,0,1.8,2.3,4.7,2.3c1.4,0,2.7-0.6,2.7-2c0-2.8-8.4-2.5-8.4-7.4c0-3,2.6-4.3,5.7-4.3
				c1.9,0,5.1,0.6,5.1,3v1.5H-64V677c0-0.9-1.4-1.3-2.3-1.3c-1.7,0-2.9,0.6-2.9,1.8c0,2.9,8.4,2.3,8.4,7.4c0,2.7-2.4,4.5-5.7,4.5
				c-4.1,0-6.2-2.7-6.2-2.7L-71.1,684.7z"/>
			<path class="st1" d="M-56.9,676h-2v-2.4h2.1v-4.2h2.8v4.2h3.7v2.4H-54v7.1c0,3.1,2.1,3.5,3.3,3.5c0.4,0,0.7-0.1,0.7-0.1v2.6
				c0,0-0.4,0.1-1,0.1c-1.9,0-5.9-0.6-5.9-5.8V676z"/>
			<path class="st1" d="M-40.3,673.3c4.3,0,6.6,3.2,6.6,7.2c0,0.4-0.1,1.2-0.1,1.2H-45c0.2,3.3,2.6,5.1,5.3,5.1
				c2.6,0,4.5-1.8,4.5-1.8l1.3,2.1c0,0-2.3,2.3-5.9,2.3c-4.9,0-8.2-3.5-8.2-8.1C-48.1,676.5-44.7,673.3-40.3,673.3z M-36.7,679.6
				c-0.1-2.6-1.7-3.9-3.6-3.9c-2.3,0-4.1,1.4-4.5,3.9H-36.7z"/>
			<path class="st1" d="M-29.8,676.8c0-0.5-0.2-0.7-0.7-0.7h-1.2v-2.5h2.8c1.3,0,1.9,0.6,1.9,1.7v0.6c0,0.5,0,0.9,0,0.9h0.1
				c0.7-1.8,2.9-3.5,5.3-3.5c2.6,0,4.1,1.2,4.6,3.5h0.1c0.9-1.9,3-3.5,5.5-3.5c3.5,0,5.1,2,5.1,5.9v6.7c0,0.5,0.2,0.7,0.7,0.7h1.2
				v2.5h-2.9c-1.4,0-1.9-0.6-1.9-1.9v-7.3c0-2.2-0.4-3.9-2.7-3.9c-2.1,0-3.8,1.9-4.3,4c-0.2,0.6-0.2,1.3-0.2,2.1v7h-3v-9.2
				c0-2-0.3-3.9-2.6-3.9c-2.3,0-3.8,1.9-4.4,4.1c-0.2,0.6-0.2,1.3-0.2,2v7h-3v-12.3H-29.8z"/>
			<path class="st1" d="M6.6,679.5h0.7v-0.2c0-2.7-1-3.7-3.4-3.7c-0.7,0-2.5,0.2-2.5,1.2v0.9h-2.8v-1.5c0-2.5,3.8-2.9,5.3-2.9
				c5,0,6.3,2.6,6.3,6v6.5c0,0.5,0.2,0.7,0.7,0.7h1.2v2.5H9.3c-1.4,0-1.9-0.7-1.9-1.8c0-0.5,0.1-0.9,0.1-0.9H7.4c0,0-1.2,3-4.9,3
				c-2.6,0-5.2-1.6-5.2-4.7C-2.7,679.8,4,679.5,6.6,679.5z M3.2,687c2.5,0,4.1-2.6,4.1-4.9v-0.5H6.5c-2.2,0-6.2,0.1-6.2,3
				C0.3,685.8,1.2,687,3.2,687z"/>
			<path class="st1" d="M15.1,684.7c0,0,1.8,2.3,4.7,2.3c1.4,0,2.7-0.6,2.7-2c0-2.8-8.4-2.5-8.4-7.4c0-3,2.6-4.3,5.7-4.3
				c1.9,0,5.1,0.6,5.1,3v1.5h-2.6V677c0-0.9-1.4-1.3-2.3-1.3c-1.7,0-2.9,0.6-2.9,1.8c0,2.9,8.4,2.3,8.4,7.4c0,2.7-2.4,4.5-5.7,4.5
				c-4.1,0-6.2-2.7-6.2-2.7L15.1,684.7z"/>
			<path class="st1" d="M42.8,673.3c3.6,0,4.7,2.4,4.7,2.4h0.1c0,0-0.1-0.5-0.1-1v-3.9c0-0.5-0.2-0.7-0.7-0.7h-1.2v-2.5h2.9
				c1.4,0,1.9,0.6,1.9,1.9v16.4c0,0.5,0.2,0.7,0.7,0.7h1.2v2.5h-2.8c-1.3,0-1.9-0.6-1.9-1.6c0-0.5,0-0.8,0-0.8h-0.1
				c0,0-1.3,2.8-5.1,2.8c-4.2,0-6.8-3.3-6.8-8.1C35.9,676.5,38.8,673.3,42.8,673.3z M47.7,681.3c0-2.7-1.4-5.5-4.4-5.5
				c-2.4,0-4.4,2-4.4,5.5c0,3.3,1.8,5.5,4.4,5.5C45.5,686.9,47.7,685.3,47.7,681.3z"/>
			<path class="st1" d="M62,673.3c4.3,0,6.6,3.2,6.6,7.2c0,0.4-0.1,1.2-0.1,1.2H57.3c0.2,3.3,2.6,5.1,5.3,5.1c2.6,0,4.5-1.8,4.5-1.8
				l1.3,2.1c0,0-2.3,2.3-5.9,2.3c-4.9,0-8.2-3.5-8.2-8.1C54.3,676.5,57.6,673.3,62,673.3z M65.6,679.6c-0.1-2.6-1.7-3.9-3.6-3.9
				c-2.3,0-4.1,1.4-4.5,3.9H65.6z"/>
			<path class="st1" d="M79.4,686.4h2.1v-16.3h-2.1v-2.6h7.1v2.6h-2.1v16.3h2.1v2.6h-7.1V686.4z"/>
			<path class="st1" d="M90.4,676.8c0-0.5-0.2-0.7-0.7-0.7h-1.2v-2.5h2.8c1.3,0,1.9,0.6,1.9,1.7v0.6c0,0.5-0.1,0.9-0.1,0.9h0.1
				c0.6-1.3,2.4-3.5,5.8-3.5c3.7,0,5.3,2,5.3,5.9v6.7c0,0.5,0.2,0.7,0.7,0.7h1.2v2.5h-2.9c-1.4,0-1.9-0.6-1.9-1.9v-7.3
				c0-2.2-0.4-3.9-2.9-3.9c-2.4,0-4.3,1.6-4.9,3.8c-0.2,0.6-0.3,1.3-0.3,2.1v7.2h-3L90.4,676.8L90.4,676.8z"/>
			<path class="st1" d="M109.5,676h-1.9v-2.4h1.9v-0.5c0-5.1,3.9-5.7,5.8-5.7c0.7,0,1.1,0.1,1.1,0.1v2.5c0,0-0.3-0.1-0.8-0.1
				c-1.2,0-3.2,0.4-3.2,3.2v0.5h3.7v2.4h-3.7v13h-3L109.5,676L109.5,676z"/>
			<path class="st1" d="M125.5,673.3c4.6,0,8.3,3.4,8.3,8c0,4.7-3.7,8.1-8.3,8.1s-8.3-3.4-8.3-8.1
				C117.2,676.7,120.9,673.3,125.5,673.3z M125.5,686.9c2.9,0,5.3-2.3,5.3-5.5c0-3.2-2.4-5.5-5.3-5.5s-5.3,2.3-5.3,5.5
				C120.2,684.6,122.6,686.9,125.5,686.9z"/>
			<path class="st1" d="M137.5,676.8c0-0.5-0.2-0.7-0.7-0.7h-1.2v-2.5h2.8c1.3,0,2,0.5,2,1.8v1c0,0.6-0.1,1.1-0.1,1.1h0.1
				c0.7-2.3,2.5-4,4.9-4c0.4,0,0.8,0.1,0.8,0.1v2.9c0,0-0.4-0.1-0.9-0.1c-1.9,0-3.6,1.3-4.3,3.6c-0.3,0.9-0.4,1.8-0.4,2.8v6.3h-3
				L137.5,676.8L137.5,676.8z"/>
			<path class="st1" d="M149.5,676.8c0-0.5-0.2-0.7-0.7-0.7h-1.2v-2.5h2.8c1.3,0,1.9,0.6,1.9,1.7v0.6c0,0.5,0,0.9,0,0.9h0.1
				c0.7-1.8,2.9-3.5,5.3-3.5c2.6,0,4.1,1.2,4.6,3.5h0.1c0.9-1.9,3-3.5,5.5-3.5c3.5,0,5.1,2,5.1,5.9v6.7c0,0.5,0.2,0.7,0.7,0.7h1.2
				v2.5H172c-1.4,0-1.9-0.6-1.9-1.9v-7.3c0-2.2-0.4-3.9-2.7-3.9c-2.1,0-3.8,1.9-4.3,4c-0.2,0.6-0.2,1.3-0.2,2.1v7h-3v-9.2
				c0-2-0.3-3.9-2.6-3.9c-2.3,0-3.8,1.9-4.4,4.1c-0.2,0.6-0.2,1.3-0.2,2v7h-3v-12.3H149.5z"/>
			<path class="st1" d="M185.8,679.5h0.7v-0.2c0-2.7-1-3.7-3.4-3.7c-0.7,0-2.5,0.2-2.5,1.2v0.9h-2.8v-1.5c0-2.5,3.8-2.9,5.3-2.9
				c5,0,6.3,2.6,6.3,6v6.5c0,0.5,0.2,0.7,0.7,0.7h1.2v2.5h-2.8c-1.4,0-1.9-0.7-1.9-1.8c0-0.5,0.1-0.9,0.1-0.9h-0.1c0,0-1.2,3-4.9,3
				c-2.6,0-5.2-1.6-5.2-4.7C176.5,679.8,183.2,679.5,185.8,679.5z M182.4,687c2.5,0,4.1-2.6,4.1-4.9v-0.5h-0.8c-2.2,0-6.2,0.1-6.2,3
				C179.5,685.8,180.5,687,182.4,687z"/>
			<path class="st1" d="M201.4,673.3c1.9,0,5.5,0.8,5.5,3.4v1.6h-2.7v-0.9c0-1.1-1.7-1.6-2.9-1.6c-3,0-5.3,2.3-5.3,5.5
				c0,3.5,2.6,5.5,5.4,5.5c2.9,0,4.8-2.1,4.8-2.1l1.3,2.1c0,0-2.2,2.6-6.3,2.6c-4.8,0-8.2-3.4-8.2-8.1
				C193.1,676.8,196.4,673.3,201.4,673.3z"/>
			<path class="st1" d="M210.9,676.8c0-0.5-0.2-0.7-0.7-0.7H209v-2.5h2.9c1.4,0,1.9,0.6,1.9,1.9v10.4c0,0.5,0.2,0.7,0.7,0.7h1.2v2.5
				h-2.9c-1.4,0-1.9-0.6-1.9-1.9L210.9,676.8L210.9,676.8z M211,667.6h2.6v3.1H211V667.6z"/>
			<path class="st1" d="M226,673.3c4.6,0,8.3,3.4,8.3,8c0,4.7-3.7,8.1-8.3,8.1s-8.3-3.4-8.3-8.1C217.7,676.7,221.4,673.3,226,673.3z
				 M226,686.9c2.9,0,5.3-2.3,5.3-5.5c0-3.2-2.4-5.5-5.3-5.5s-5.3,2.3-5.3,5.5C220.7,684.6,223.1,686.9,226,686.9z M227,667.6h3
				l-2.9,3.9h-2.3L227,667.6z"/>
			<path class="st1" d="M238,676.8c0-0.5-0.2-0.7-0.7-0.7H236v-2.5h2.8c1.3,0,1.9,0.6,1.9,1.7v0.6c0,0.5-0.1,0.9-0.1,0.9h0.1
				c0.6-1.3,2.4-3.5,5.8-3.5c3.7,0,5.3,2,5.3,5.9v6.7c0,0.5,0.2,0.7,0.7,0.7h1.2v2.5h-2.9c-1.4,0-1.9-0.6-1.9-1.9v-7.3
				c0-2.2-0.4-3.9-2.9-3.9c-2.4,0-4.3,1.6-4.9,3.8c-0.2,0.6-0.3,1.3-0.3,2.1v7.2h-3v-12.3H238z"/>
			<path class="st1" d="M274.5,667.2c5.1,0,7.7,2.6,7.7,2.6l-1.7,2.2c0,0-2.3-2.1-5.9-2.1c-4.3,0-7.7,3.4-7.7,8.2
				c0,5,3.4,8.3,7.8,8.3c3.8,0,6.1-2.7,6.1-2.7v-2.2c0-0.4-0.2-0.7-0.7-0.7h-1.3v-2.6h2.8c1.4,0,1.9,0.6,1.9,1.9v8.7h-2.7v-1.3
				c0-0.5,0-0.9,0-0.9h-0.1c0,0-2.4,2.6-6.7,2.6c-5.7,0-10.5-4.5-10.5-11.2C263.7,672,268.4,667.2,274.5,667.2z"/>
			<path class="st1" d="M294.1,673.3c4.3,0,6.6,3.2,6.6,7.2c0,0.4-0.1,1.2-0.1,1.2h-11.2c0.2,3.3,2.6,5.1,5.3,5.1
				c2.6,0,4.5-1.8,4.5-1.8l1.3,2.1c0,0-2.3,2.3-5.9,2.3c-4.9,0-8.2-3.5-8.2-8.1C286.4,676.5,289.7,673.3,294.1,673.3z M297.7,679.6
				c-0.1-2.6-1.7-3.9-3.6-3.9c-2.3,0-4.1,1.4-4.5,3.9H297.7z"/>
			<path class="st1" d="M311.5,673.3c4.6,0,8.3,3.4,8.3,8c0,4.7-3.7,8.1-8.3,8.1s-8.3-3.4-8.3-8.1
				C303.2,676.7,306.9,673.3,311.5,673.3z M311.5,686.9c2.9,0,5.3-2.3,5.3-5.5c0-3.2-2.4-5.5-5.3-5.5s-5.3,2.3-5.3,5.5
				C306.2,684.6,308.6,686.9,311.5,686.9z"/>
			<path class="st1" d="M328.8,673.3c3.8,0,4.9,2.4,4.9,2.4h0.1c0,0,0-0.2,0-0.5c0-0.9,0.5-1.6,1.7-1.6h2.9v2.5h-1.2
				c-0.4,0-0.7,0.2-0.7,0.6v11.6c0,5.1-3.9,7-7.8,7c-1.9,0-3.7-0.5-5.3-1.3l1-2.4c0,0,1.9,1,4.2,1c2.7,0,4.9-1.2,4.9-4.3v-1
				c0-0.5,0.1-1,0.1-1h-0.1c-0.9,1.5-2.3,2.3-4.6,2.3c-4.3,0-6.9-3.4-6.9-7.9C322,676.6,324.5,673.3,328.8,673.3z M333.6,681
				c0-4-2-5.2-4.4-5.2c-2.7,0-4.2,1.9-4.2,5.1s1.7,5.4,4.4,5.4C331.6,686.3,333.6,685,333.6,681z"/>
			<path class="st1" d="M341.6,676.8c0-0.5-0.2-0.7-0.7-0.7h-1.2v-2.5h2.8c1.3,0,2,0.5,2,1.8v1c0,0.6-0.1,1.1-0.1,1.1h0.1
				c0.7-2.3,2.5-4,4.9-4c0.4,0,0.8,0.1,0.8,0.1v2.9c0,0-0.4-0.1-0.9-0.1c-1.9,0-3.6,1.3-4.3,3.6c-0.3,0.9-0.4,1.8-0.4,2.8v6.3h-3
				L341.6,676.8L341.6,676.8z"/>
			<path class="st1" d="M360.3,679.5h0.7v-0.2c0-2.7-1-3.7-3.4-3.7c-0.7,0-2.5,0.2-2.5,1.2v0.9h-2.8v-1.5c0-2.5,3.8-2.9,5.3-2.9
				c5,0,6.3,2.6,6.3,6v6.5c0,0.5,0.2,0.7,0.7,0.7h1.2v2.5H363c-1.4,0-1.9-0.7-1.9-1.8c0-0.5,0.1-0.9,0.1-0.9h-0.1c0,0-1.2,3-4.9,3
				c-2.6,0-5.2-1.6-5.2-4.7C351,679.8,357.7,679.5,360.3,679.5z M356.9,687c2.5,0,4.1-2.6,4.1-4.9v-0.5h-0.8c-2.2,0-6.2,0.1-6.2,3
				C354,685.8,354.9,687,356.9,687z M359,667.6h3l-2.9,3.9h-2.3L359,667.6z"/>
			<path class="st1" d="M369,676h-1.9v-2.4h1.9v-0.5c0-5.1,3.9-5.7,5.8-5.7c0.7,0,1.1,0.1,1.1,0.1v2.5c0,0-0.3-0.1-0.8-0.1
				c-1.2,0-3.2,0.4-3.2,3.3v0.4h7.8c1.4,0,1.9,0.6,1.9,1.9v10.4c0,0.5,0.2,0.7,0.7,0.7h1.2v2.5h-2.9c-1.4,0-2-0.6-2-1.9v-10.4
				c0-0.4-0.2-0.7-0.7-0.7H372v13h-3V676z M378.8,667.6h2.7v3.1h-2.7V667.6z"/>
			<path class="st1" d="M393.8,673.3c1.9,0,5.5,0.8,5.5,3.4v1.6h-2.7v-0.9c0-1.1-1.7-1.6-2.9-1.6c-3,0-5.3,2.3-5.3,5.5
				c0,3.5,2.6,5.5,5.4,5.5c2.9,0,4.8-2.1,4.8-2.1l1.3,2.1c0,0-2.2,2.6-6.3,2.6c-4.8,0-8.2-3.4-8.2-8.1
				C385.5,676.8,388.8,673.3,393.8,673.3z"/>
			<path class="st1" d="M411,679.5h0.7v-0.2c0-2.7-1-3.7-3.4-3.7c-0.7,0-2.5,0.2-2.5,1.2v0.9H403v-1.5c0-2.5,3.8-2.9,5.3-2.9
				c5,0,6.3,2.6,6.3,6v6.5c0,0.5,0.2,0.7,0.7,0.7h1.2v2.5h-2.8c-1.4,0-1.9-0.7-1.9-1.8c0-0.5,0.1-0.9,0.1-0.9h-0.1c0,0-1.2,3-4.9,3
				c-2.6,0-5.2-1.6-5.2-4.7C401.7,679.8,408.4,679.5,411,679.5z M407.6,687c2.5,0,4.1-2.6,4.1-4.9v-0.5H411c-2.2,0-6.2,0.1-6.2,3
				C404.7,685.8,405.7,687,407.6,687z"/>
		</g>
	</g>
</g>
</svg>
