<?xml version="1.0" encoding="utf-8"?>
<!-- Generator: Adobe Illustrator 19.1.0, SVG Export Plug-In . SVG Version: 6.00 Build 0)  -->
<svg version="1.1" id="Capa_1" xmlns="http://www.w3.org/2000/svg" xmlns:xlink="http://www.w3.org/1999/xlink" x="0px" y="0px"
	 viewBox="-225 471.4 389.7 249.1" style="enable-background:new -225 471.4 389.7 249.1;" xml:space="preserve">
<style type="text/css">
	.st0{fill:none;}
	.st1{fill:none;stroke:#00F940;stroke-width:0.431;}
	.st2{fill:#00F940;}
	.st3{fill:#555555;}
</style>
<g>
	<path d="M-51.2,626.3"/>
	<g>
		<g>
			<polygon class="st0" points="-19.7,610.8 129.4,601 130.7,598 84.6,597.5 -26.2,605.3 -91.7,610.5 			"/>
			<g>
				<polygon class="st0" points="-19.7,610.8 129.4,601 130.7,598 84.6,597.5 -26.2,605.3 -91.7,610.5 				"/>
				<g>
					<polygon class="st0" points="-19.7,610.8 129.4,601 130.7,598 84.6,597.5 -26.2,605.3 -91.7,610.5 					"/>
					<polygon class="st0" points="-19.7,610.8 129.4,601 130.7,598 84.6,597.5 -26.2,605.3 -91.7,610.5 					"/>
				</g>
			</g>
		</g>
	</g>
	<g>
		<polygon class="st0" points="-19.7,610.8 129.4,601 130.7,598 84.6,597.5 -26.2,605.3 -91.7,610.5 		"/>
		<polygon class="st0" points="129.4,601 130.7,598 84.6,597.5 -26.2,605.3 -91.7,610.5 -19.7,610.8 		"/>
	</g>
	<path class="st1" d="M14,648.3"/>
	<path class="st2" d="M13.7,646.7"/>
	<g>
		<g>
			<path class="st3" d="M81,584.2l52-0.4c0-0.3,0-0.6,0-1l-24.6-0.4l24.5-2.1c-0.1-2-0.2-4-0.4-6L48.1,579l-59.5,3.9l-88.3-0.4
				l90.1-6.9l84-6.5l57.3-0.4c0-0.2-0.1-0.3-0.1-0.5h-27l26.5-2.4c-0.5-2.1-1-4.1-1.6-6.1l-95.6,6L-3.6,569l-101.3-0.9l111.6-7.8
				l65.1-5.2l56.3,0.4c-0.1-0.2-0.2-0.5-0.3-0.7l-26.3-1l25.2-1.7c-0.9-2.1-1.8-4.1-2.9-6.2L3.7,553.8h-112.3l118.1-9l55.2-3h57
				c-0.2-0.3-0.4-0.7-0.6-1l-31.5-1.2l29.2-2.5c-1.1-1.7-2.3-3.4-3.5-5L6,540.2h-119.8l121.1-9l49.6-3.4l54.2-0.8
				c-0.3-0.3-0.6-0.7-0.8-1l-18.4-0.4l17.2-1c-1.2-1.3-2.3-2.6-3.6-3.8L11.7,526l-129.3-0.4l146.1-10.3l25.9-1.3L97,513
				c-0.6-0.5-1.1-0.9-1.7-1.4l-9.4,0.4l8-1.5c-1.7-1.4-3.5-2.7-5.3-4L16,512l-142.4,0.2L25,500.6l51.6-2.3c-0.8-0.5-1.5-0.9-2.3-1.4
				l-44.1,0.5l-157.7,0.2l177.1-12.5l2.3,0.6c-2.3-1-4.6-1.9-6.9-2.8l-176,0.4L9.8,472.6c-1.9-0.4-3.9-0.8-5.9-1.2v0.2l-131.9,8.1
				c-4.5,1.5-8.8,3.1-13.1,4.8l138,0.4l-163.5,12.3c-0.9,0.6-1.9,1.1-2.8,1.7l157.3,0.8l-175.3,12c-1.9,1.5-3.7,3.1-5.4,4.7
				l36.7-2.9l138.8,0.4l-98.7,6.5l-86.8,6.4c-1.3,1.6-2.6,3.2-3.9,4.8l56.6-4.3l127.7,0.8l-191,13.5c-0.7,1.1-1.3,2.2-1.9,3.4
				l69.2-3.1l119.4,0.4l-193.6,14c-0.7,1.9-1.3,3.7-1.8,5.6l85-6.2l110.4,0.4l-197.2,14c-0.3,2-0.6,4.1-0.8,6.2l92.4-6.3l101.3,0.4
				l-194,13.1c0,2.4,0.2,4.8,0.4,7.2l97.4-7l91.8,0.4l-188.1,13.5c0.5,2.6,1.2,5.3,2,7.8l98.7-7.5l81.5,0.9l-178.2,12.4
				c1.1,2.8,2.3,5.5,3.7,8.2l96.8-6.8h73.7L-212.7,625c1.6,2.7,3.4,5.3,5.3,7.8l92.7-6.3l64.2,0.4L-203,638.3c2.5,3,5.3,5.9,8.2,8.8
				l85.3-5.9h54.7L-189.3,652c3.2,2.8,6.6,5.4,10.1,8l78.3-6l46.5,1.7l-119.4,8c5.2,3.4,10.7,6.6,16.6,9.6l55.9-4.3l37.1,0.9
				l-87.5,6.1c8,3.8,16.6,7.2,25.6,10.1l28.7-3.3l30.1,1.3l-48.7,5c21.5,5.9,45.2,9.2,70,9.2c37.6,0,72.5-7.5,101.4-20.3l-92.1,4.4
				l-28-0.9l132.2-9.4c6-3.2,11.6-6.6,16.9-10.2l-103,5.8h-50.9l162-11.8c4.5-3.5,8.7-7.3,12.5-11.2l-134.1,8.8H-74l183-13.1
				c2.9-3.2,5.5-6.5,7.9-9.9l-99.1,5.8l-45.7,3.9l-55.2-1.3l63.8-4.7L94,627l25.8-0.8c2.3-3.6,4.3-7.4,6-11.2l-36,2.9l-112.5,8.2
				l-64.6-0.4l65.5-5.6l112-7.3h36.6c0.2-0.4,0.3-0.8,0.5-1.2l-11.2-0.5l11.9-1.3c1-2.7,1.8-5.4,2.5-8.2l-149.7,9.9l-72-0.4l1.2-0.1
				h-1.1l65.5-5.2L85.2,598l46.1,0.5h-0.1l0,0h0.1c0.1-0.3,0.1-0.7,0.2-1l-17.5-0.7l18-2c0.4-2.3,0.6-4.5,0.8-6.8l-49.3,2.8
				l-96.5,6.5h-83.2l84.9-6.9L81,584.2z"/>
			<polygon class="st3" points="85.3,598 -25.5,605.8 -91,611 -90,611 -25.6,605.8 85.2,598 131.2,598.5 131.4,598.5 			"/>
		</g>
		<path class="st3" d="M130.8,601.5L130.8,601.5L130.8,601.5z"/>
	</g>
	<path d="M159.4,671.8l-12.5,0.1l-2,6.6l11.2,0.3l-5.3,17.3l-11.2,0.1l-1.6,6.2h12.2l-5.6,18.1h-41.4l1.3-8.2L93,711.7l-3.3,8.2
		H61.4l-2-34.9l-10.5,34.6l-14.1-0.1L55.2,653l14.8-0.1l1.3,37l10.2-37.2l14.5,0.6l-17.4,57l30.3-56.9l16.1,0.2l-5.3,57.7l18.1-57.5
		h27L159.4,671.8z M100.9,696.3h5.6l3.3-20.4L100.9,696.3z"/>
	<path d="M41.7,695c-8.6,18.7-24.2,30-34.8,25.1s-12.2-24-3.6-42.7s24.2-30,34.8-25.1S50.3,676.3,41.7,695z M28,674.3
		c-3.6-1.7-9.1,2.7-12.4,9.8c-3.2,7.1-3,14.2,0.6,15.8c3.6,1.7,9.1-2.7,12.4-9.8S31.6,676,28,674.3z"/>
	<g>
		<path d="M-12.9,699c-4.2-1.9-5-9.2-1.8-16.3s9.3-11.2,13.5-9.3c2.1,1,3.3,3.2,3.7,6.1l0.3-0.6l7.8-24c-1.1-1.1-2.4-2.1-3.8-2.7
			c-10.6-4.9-26.2,6.4-34.8,25.1s-7.4,37.4,3.2,42.3c4,1.9,9.7,1.4,14.5-1l7.7-24.7C-5.8,697.8-9.8,700.5-12.9,699z"/>
	</g>
</g>
</svg>
