<?xml version="1.0" encoding="utf-8"?>
<!-- Generator: Adobe Illustrator 19.1.0, SVG Export Plug-In . SVG Version: 6.00 Build 0)  -->
<svg version="1.1"
	 id="svg3594" xmlns:svg="http://www.w3.org/2000/svg" xmlns:rdf="http://www.w3.org/1999/02/22-rdf-syntax-ns#" xmlns:dc="http://purl.org/dc/elements/1.1/" xmlns:cc="http://creativecommons.org/ns#"
	 xmlns="http://www.w3.org/2000/svg" xmlns:xlink="http://www.w3.org/1999/xlink" x="0px" y="0px" viewBox="-342 567.3 156.5 57.2"
	 style="enable-background:new -342 567.3 156.5 57.2;" xml:space="preserve">
<style type="text/css">
	.st0{fill:#231F20;}
	.st1{fill:url(#ocean_2_);}
	.st2{fill:url(#na_2_);}
	.st3{fill:url(#sa_2_);}
	.st4{fill:url(#africa_2_);}
</style>
<g>
	<path id="esri_1_" class="st0" d="M-190.6,567.3c-2.9,0-5,2.3-5,4.9s2.1,4.9,5,4.9c2.9,0,5.1-2.1,5.1-4.9
		C-185.5,569.4-187.7,567.3-190.6,567.3z M-262.5,582c-9.2,0-16.6,6.4-16.6,16c0,9.6,7.4,16,16.6,16c4.2,0,8.1-1.3,11.4-4.5
		l-4.8-4.8c-1.8,1.9-4.1,3.2-7.4,3.2c-4.3,0-7.7-2.7-8.2-7.2h23.2v-2.1C-248.3,587.9-254,582-262.5,582z M-233,582
		c-6.2,0-12.3,3-12.3,9.8c0,11.6,16.4,6.7,16.4,12.9c0,2.4-2.9,3.5-5.1,3.5c-3.2,0-5.3-1.6-7.2-3.7l-4.9,4.9
		c3.1,3.3,7.1,4.5,11.7,4.5c6.2,0,13.1-2.5,13.1-9.8c0-11.9-16.4-7.4-16.4-12.9c0-2.3,2.4-3.2,4.4-3.2c2.6,0,4.5,1.1,5.9,3.1
		l4.8-4.8C-224.9,583.2-229.1,582-233,582z M-200.9,582c-4,0-7.4,2.1-9,5.6h-0.1v-4.8h-7.6v30.5h7.6v-16.3c0-1.6,1-7.7,8.2-7.7
		c1.1,0,2.2,0.2,3.4,0.5l0.3-7.3C-199.1,582.1-200,582-200.9,582z M-194.4,582.7v30.5h7.6v-30.5
		C-186.8,582.7-194.4,582.7-194.4,582.7z M-263.6,587.7c4.8,0,7.7,2.8,7.7,7.2h-15.6C-270.9,590.5-268.1,587.7-263.6,587.7z"/>
	<g id="globe">
		
			<radialGradient id="ocean_2_" cx="-663.3335" cy="1157.6628" r="1.0131" gradientTransform="matrix(16.5126 0 0 -16.5126 10631.3496 19709.082)" gradientUnits="userSpaceOnUse">
			<stop  offset="0" style="stop-color:#BFE6F9"/>
			<stop  offset="1" style="stop-color:#1478C7"/>
		</radialGradient>
		<path id="ocean_1_" class="st1" d="M-338.1,597.4c0,13,10.6,23.6,23.6,23.6l0,0c13,0,23.6-10.6,23.6-23.6l0,0
			c0-13-10.6-23.6-23.6-23.6l0,0C-327.5,573.8-338.1,584.4-338.1,597.4"/>
		<g id="continents_1_" transform="matrix(1.0000778,0,0,1.0000778,-111.33187,-124.97085)">
			
				<radialGradient id="na_2_" cx="-555.7799" cy="1288.8632" r="1.0131" gradientTransform="matrix(20.2582 0 0 -20.2582 11047.4951 26828.2305)" gradientUnits="userSpaceOnUse">
				<stop  offset="0" style="stop-color:#A6D71C"/>
				<stop  offset="0.9607" style="stop-color:#23A03D"/>
				<stop  offset="1" style="stop-color:#23A03D"/>
			</radialGradient>
			<path id="na_1_" class="st2" d="M-213.1,703.8c-1.8,0.1-3.6,0.3-5.3,0.6l0,0c-4.9,4.2-8.1,10.3-8.3,17.2l0,0
				c1.4,1.5,3.2,4.8,5.3,6.7l0,0c0.3-0.1,0.6-0.2,0.9-0.3l0,0c-1-1.2-2.5-2.8-2.7-3.5l0,0c-1.1-3.6,0.2-7,2.8-7.3l0,0
				c2.4-0.2,4.5-3.8,6.2-6.2l0,0c3.5-4.8,8.8-4,8.6-6.4l0,0c-0.3-1.4-1.1-1.8-2.2-1.8l0,0C-209.4,702.7-211.5,703.7-213.1,703.8"/>
			
				<radialGradient id="sa_2_" cx="-559.3685" cy="1294.8136" r="1.0131" gradientTransform="matrix(25.748 0 0 -25.748 14196.1904 34055.6719)" gradientUnits="userSpaceOnUse">
				<stop  offset="0" style="stop-color:#A6D71C"/>
				<stop  offset="0.9607" style="stop-color:#23A03D"/>
				<stop  offset="1" style="stop-color:#23A03D"/>
			</radialGradient>
			<path id="sa_1_" class="st3" d="M-219.4,727.7c-0.3,0.1-0.7,0.2-1,0.3l0,0c-0.3,0.1-0.5,0.2-0.9,0.3l0,0c-0.9,0.4-1.5,1-1.6,2.2
				l0,0c-0.3,2.3,1.9,4.1,3.8,4.6l0,0c2.3,0.7,2.5-0.1,3.7,1.5l0,0c0.9,1.2,1,3.3,1.5,4.7l0,0c0.2,0.8,0.6,1.6,1,2.3l0,0
				c1.7,0.8,3.4,1.4,5.3,1.7l0,0c0.5-2.7,0.3-6.4,0.9-8l0,0c1.2-3.2,1.9-4.7,0.3-8l0,0c-3.7-1-4.8-1.4-8.6-2.1l0,0
				c-0.8-0.2-1.2-0.2-1.7-0.2l0,0C-217.5,727.1-218.1,727.3-219.4,727.7"/>
			
				<radialGradient id="africa_2_" cx="-562.5949" cy="1300.1628" r="1.0131" gradientTransform="matrix(34.0339 0 0 -34.0339 18942.8125 44955.3672)" gradientUnits="userSpaceOnUse">
				<stop  offset="0" style="stop-color:#A6D71C"/>
				<stop  offset="0.9607" style="stop-color:#23A03D"/>
				<stop  offset="1" style="stop-color:#23A03D"/>
			</radialGradient>
			<path id="africa_1_" class="st4" d="M-196.5,708.9c-1.1,1.6-4.9,2-6.2,3.7l0,0c-1,1.4,0,4.1-0.8,5.6l0,0
				c-0.4,0.7-0.2,2.8,0.3,3.5l0,0c1.5,2.1,3.9,1,5.8,1.7l0,0c2.3,0.9,2.5,3.6,4.4,5.5l0,0c1.9,1.9-2.4,4.9,1.1,11.8l0,0
				c0.4,0.7,0.8,1.3,1.3,1.7l0,0c2.4-1.5,4.4-3.3,6.1-5.5l0,0c0.5-3.5-0.7-4.6,0.8-7.9l0,0c0.9-2,2.5-5.4,4.2-7.7l0,0
				c-0.3-6.5-3.2-12.3-7.7-16.4l0,0c-0.4,0.1-1,0.1-1.7,0l0,0c-0.6-0.1-1.2-0.2-1.7-0.2l0,0C-194.2,704.7-195.2,707.1-196.5,708.9"
				/>
		</g>
		<path id="grid_1_" class="st0" d="M-317.2,622.5c-0.8-0.4-1.8-1.1-2.7-1.7c-0.4,0.3-0.7,0.8-1,1.2
			C-319.8,622.3-318.4,622.3-317.2,622.5 M-321.3,619.7c-1.7-1.2-5.8-5.2-7.5-7.5c-0.6,0.4-1.3,1.4-2.2,1.6
			c-0.4,0.1-1.2,0.2-1.4,0.1c-0.2-0.1,0.1-0.6,0.3-0.9c0.4-0.6,1.1-1.3,2.1-2.1c-2-3-3-5.2-4.4-8.8c-0.8,0.5-1.4,0.9-2.1,1.5
			c-0.2,0.2-0.9,0.3-1.2,0c-0.6-0.5-0.6-1.4,0.2-2c0.3-0.2,2-1.4,2.3-1.7c-1-2.9-1.8-6.7-2.1-8.7c-0.7,0.6-1.6,1.2-1.9,1.4
			c-0.4,0.1-0.6,0-0.7,0c-0.4,4.1,0.1,8.6,1.3,12.7c2.1,7,8,13.7,15.9,16.1C-322.6,621-321.7,620-321.3,619.7 M-337.5,589
			c-0.1-1.5-0.2-3.6-0.2-3.6c-1.1,2.4-1.8,3.9-2.1,6.7C-339.1,590.7-337.5,589-337.5,589 M-325.7,571.7c4.6-1.9,9.1-2.9,14.2-2.2
			c0.6,0.1,0.5,0.6-0.1,0.6l-0.7,0c-4.2,0.1-10.3,1.4-13.4,3.2c-0.1,2.1,0.3,5.5,0.8,8.1c2.9-1.2,7.3-2.5,10.7-2.8
			c-1.9-2-4.5-4-4.8-4.2c-0.3-0.2-0.5-0.6-0.5-1.1c0-0.9,0.8-1,1.3-0.9c1.4-0.3,2.8-0.6,5.2-0.5c10.1-0.4,19.3,5.3,22.8,11.7
			c8.9,14.1,0,33.5-11.6,38.6c-5,2.2-9.2,3.2-17.1,2.1c-7.9-1.1-14.3-5-19.3-13.1c-6.2-10-2.7-21.6-1.8-24.1
			C-336.5,578.3-330.4,573.7-325.7,571.7 M-336.1,582.3c-0.1,1.1,0,3,0.3,5.3c2.1-1.9,6.3-4.4,9.7-5.9c-0.4-2.6-0.8-6.8-0.8-8
			c-3.2,1.8-6.7,5.3-9.3,8.9 M-335.6,589.8c0.3,2.1,1.3,6.6,2.2,8.9c2.1-1.6,7-4.6,9.7-5.8c-1-3.5-1.6-5.7-2.1-9.2
			C-329.7,585.3-333.8,588-335.6,589.8 M-332.6,600.7c1.3,3.6,2.5,6.4,4.1,8.7c1.9-1.6,5.7-4.2,8.7-5.6c-1-2.1-2.4-6-3.3-8.9
			C-326.9,596.7-329.7,598.5-332.6,600.7 M-327.2,610.9c2,2.6,5.1,5.8,7.3,7.6c2.1-1.7,4.4-3.2,6.3-4.1c-1.7-2.6-4.1-6.4-5.2-8.7
			C-322.5,607.3-324.6,608.7-327.2,610.9 M-318.7,619.7c0.8,0.8,3.9,2.9,3.9,2.9c2.1,0.1,4.7-0.2,6.6-0.5c-1-1.2-3.6-4.9-4.4-6.1
			C-314.6,616.8-317.1,618.4-318.7,619.7 M-305.9,621.5c1.1-0.3,3.8-1.6,4.3-1.9c0.1-2.2,0.1-4.6,0-6.1c-2.8,0-6.8,0.8-9.1,1.8
			C-309.4,617.4-307.6,619.7-305.9,621.5 M-300.1,618.8c2.1-1.3,4.1-2.9,5.6-4.7c-1.2-0.3-4-0.7-5.4-0.6
			C-300,613.5-300,616.8-300.1,618.8 M-293.9,613.2c0.4-0.4,1-1.3,1.2-1.7c0.2-2,0.2-6.1,0.2-7.4c-2.4-1-6.2-1.8-8.9-2
			c0.9,3.3,1.3,8.1,1.4,9.7C-298.7,612-295.4,612.6-293.9,613.2 M-290.3,603.9c-0.1,0.4-0.8,0.8-1.1,0.7c0,0.7-0.1,4-0.3,5.3
			c0.5-1,1.4-3.3,1.6-4.3l0.4-1.5c0.4-1.3,1.6-5.6,0.5-11.3c-1.2-6.4-3.5-8.6-4.3-9.6c-2-1.1-5.1-2.1-5.1-2.1
			c2.8,3.8,3.8,5.6,5.4,10.1c1,0.5,2.7,1.5,3,1.7c0.2,0.2,0.2,0.6-0.4,0.6c-0.5,0-1.4-0.4-2-0.6c0.7,2.5,1.3,7,1.3,10.1
			C-291.4,602.9-290.2,603.5-290.3,603.9 M-295,581c-3.9-4.8-12.7-8.8-22.4-8.2c2.2,1.4,4,3.6,5.6,5.4c2.4-0.2,7.6,0.2,9.5,0.7
			c-0.3-0.4-0.7-0.8-0.8-1c-0.3-0.6,0.4-0.7,0.9-0.4c0.7,0.4,1.4,0.9,2.1,1.6C-299.1,579.4-296.3,580.3-295,581 M-292.5,602.4
			c-0.2-3.1-0.6-7.2-1.8-10c-3-1.2-7.1-2-10.7-2c1.1,2.6,2.4,6.9,3,9.7C-299.4,600.5-295.3,601.2-292.5,602.4 M-301,580.5
			c-2.7-0.5-6.7-0.8-9.6-0.6c2,2.8,3.5,5.2,4.9,8.7c3.7,0.1,8.8,1.2,10.9,2C-296.1,587.3-298.5,583.1-301,580.5 M-318,602.9
			c4.4-2,9.3-3,14.2-2.8c-1.3-4.6-2.1-6.8-3.2-9.6c-5.5,0.2-10.1,1.6-14.3,3.6C-321.4,594.1-319.8,599.1-318,602.9 M-303.3,602
			c-5.6-0.1-10.4,1.3-13.7,2.9c1.4,3,4.2,7,5.2,8.7c1.8-0.7,3.7-1.2,5.3-1.4c1.5-0.2,3.5-0.5,4.9-0.4
			C-301.9,608.2-302.3,605.9-303.3,602 M-322,592.2c4-1.7,8.4-3.1,14.2-3.6c-1.5-3.6-3.1-6.1-5.1-8.4c-4.3,0.3-8.3,1.5-11.7,2.9
			C-324.1,585.7-323.1,588.9-322,592.2"/>
	</g>
</g>
</svg>
