<?xml version="1.0" encoding="utf-8"?>
<!-- Generator: Adobe Illustrator 19.1.0, SVG Export Plug-In . SVG Version: 6.00 Build 0)  -->
<svg version="1.1"
	 id="svg3594" xmlns:svg="http://www.w3.org/2000/svg" xmlns:rdf="http://www.w3.org/1999/02/22-rdf-syntax-ns#" xmlns:dc="http://purl.org/dc/elements/1.1/" xmlns:cc="http://creativecommons.org/ns#"
	 xmlns="http://www.w3.org/2000/svg" xmlns:xlink="http://www.w3.org/1999/xlink" x="0px" y="0px" viewBox="-342 567.3 156.5 57.2"
	 enable-background="new -342 567.3 156.5 57.2" xml:space="preserve">
<g>
	<path id="esri" d="M-190.8,567.3c-2.9,0-5,2.3-5,4.9s2.1,4.9,5,4.9s5.2-2.1,5.2-4.9S-187.8,567.3-190.8,567.3z M-262.6,581.8
		c-9.2,0-16.5,6.4-16.5,16s7.4,16,16.5,16c4.1,0,8.1-1.3,11.4-4.6l-4.8-4.8c-1.8,1.9-4,3.2-7.4,3.2c-4.3,0-7.7-2.7-8.2-7.2h23.2
		v-2.1C-248.3,587.8-254.1,581.8-262.6,581.8z M-233.1,581.8c-6.2,0-12.2,3-12.2,9.8c0,11.6,16.4,6.7,16.4,13c0,2.4-2.8,3.4-5.1,3.4
		c-3.2,0-5.3-1.6-7.2-3.7l-5,5c3,3.3,7.1,4.6,11.6,4.6c6.2,0,13.2-2.5,13.2-9.7c0-11.8-16.4-7.4-16.4-12.9c0-2.3,2.4-3.2,4.5-3.2
		c2.6,0,4.5,1.1,6,3l4.9-4.9C-225,583-229.1,581.8-233.1,581.8z M-201.1,581.8c-4,0-7.4,2.1-9,5.6h-0.1v-4.9h-7.6V613h7.6v-16.3
		c0-1.6,1-7.7,8.2-7.7c1.1,0,2.2,0.2,3.3,0.5l0.3-7.3C-199.3,582-200.1,581.8-201.1,581.8z M-194.5,582.6v30.5h7.6v-30.5H-194.5z
		 M-263.6,587.5c4.8,0,7.7,2.8,7.7,7.2h-15.6C-270.9,590.4-268.2,587.5-263.6,587.5z"/>
	
		<radialGradient id="ocean_1_" cx="-2277.2866" cy="806.4484" r="1.0119" gradientTransform="matrix(16.5126 0 0 -16.5126 37282 13909.5)" gradientUnits="userSpaceOnUse">
		<stop  offset="0" style="stop-color:#C8C8C8"/>
		<stop  offset="0.2227" style="stop-color:#C1C1C1"/>
		<stop  offset="0.5465" style="stop-color:#AEAEAE"/>
		<stop  offset="0.9306" style="stop-color:#8E8E8E"/>
		<stop  offset="0.995" style="stop-color:#888888"/>
	</radialGradient>
	<path id="ocean" fill="url(#ocean_1_)" d="M-338,597.3c0,13.1,10.5,23.6,23.6,23.6l0,0c13.1,0,23.6-10.5,23.6-23.6l0,0
		c0-13.1-10.5-23.6-23.6-23.6l0,0C-327.5,573.7-338,584.3-338,597.3"/>
	<g id="continents" transform="matrix(1.0000778,0,0,1.0000778,-111.33187,-124.97085)">
		<path id="na" fill="#444444" d="M-213,703.7c-1.8,0.1-3.5,0.3-5.3,0.6l0,0c-5,4.1-8.1,10.3-8.3,17.2l0,0c1.4,1.4,3.2,4.8,5.4,6.7
			l0,0c0.3-0.1,0.6-0.2,0.9-0.3l0,0c-1-1.2-2.5-2.8-2.7-3.5l0,0c-1.1-3.6,0.2-7,2.8-7.3l0,0c2.4-0.2,4.5-3.8,6.2-6.2l0,0
			c3.4-4.9,8.8-4,8.6-6.4l0,0c-0.3-1.4-1.1-1.8-2.2-1.8l0,0C-209.3,702.7-211.4,703.6-213,703.7"/>
		<path id="sa" fill="#444444" d="M-219.4,727.6c-0.3,0.1-0.7,0.2-1,0.3l0,0c-0.3,0.1-0.5,0.2-0.9,0.3l0,0c-0.9,0.4-1.5,1-1.6,2.2
			l0,0c-0.3,2.3,1.9,4,3.7,4.7l0,0c2.3,0.7,2.5-0.1,3.7,1.5l0,0c0.8,1.1,1,3.3,1.4,4.7l0,0c0.2,0.8,0.6,1.6,1,2.3l0,0
			c1.6,0.8,3.4,1.3,5.3,1.7l0,0c0.5-2.7,0.2-6.4,0.8-8l0,0c1.2-3.2,1.9-4.7,0.3-8l0,0c-3.7-1-4.9-1.4-8.6-2.1l0,0
			c-0.8-0.2-1.2-0.2-1.6-0.2l0,0C-217.5,726.9-218,727.1-219.4,727.6"/>
		<path id="africa" fill="#444444" d="M-196.5,708.7c-1.1,1.5-5,2-6.2,3.7l0,0c-0.9,1.4,0,4-0.8,5.6l0,0c-0.4,0.7-0.2,2.8,0.3,3.4
			l0,0c1.5,2.1,3.9,0.9,5.8,1.7l0,0c2.2,0.9,2.5,3.5,4.4,5.5l0,0c1.8,1.9-2.4,4.9,1.1,11.8l0,0c0.4,0.7,0.8,1.3,1.3,1.6l0,0
			c2.3-1.4,4.5-3.3,6.1-5.5l0,0c0.5-3.5-0.7-4.7,0.8-7.9l0,0c0.9-2,2.5-5.4,4.1-7.7l0,0c-0.3-6.5-3.2-12.3-7.7-16.4l0,0
			c-0.4,0.1-1,0.1-1.7,0l0,0c-0.6-0.1-1.2-0.2-1.7-0.2l0,0C-194.2,704.6-195.2,707-196.5,708.7"/>
	</g>
	<path id="grid" d="M-317.1,622.3c-0.8-0.4-1.7-1.1-2.6-1.7c-0.4,0.3-0.7,0.8-1,1.2C-319.8,622.1-318.4,622.2-317.1,622.3
		 M-321.3,619.5c-1.7-1.2-5.8-5.2-7.5-7.5c-0.6,0.4-1.3,1.4-2.2,1.5c-0.4,0.1-1.2,0.2-1.4,0.1c-0.2-0.1,0.1-0.6,0.3-0.9
		c0.4-0.6,1.1-1.3,2-2.1c-2-3-3-5.2-4.4-8.8c-0.8,0.5-1.4,0.9-2.1,1.5c-0.2,0.2-0.9,0.3-1.2,0c-0.6-0.5-0.6-1.4,0.2-2
		c0.3-0.2,1.9-1.3,2.3-1.7c-1-2.9-1.8-6.7-2-8.7c-0.7,0.6-1.6,1.2-1.9,1.4c-0.4,0.1-0.6,0-0.7,0c-0.4,4,0.1,8.6,1.3,12.6
		c2.1,7,8,13.7,15.9,16.1C-322.5,620.9-321.6,619.9-321.3,619.5 M-337.5,588.9c-0.1-1.5-0.2-3.5-0.2-3.5c-1.1,2.4-1.8,3.8-2.1,6.7
		C-339,590.6-337.5,588.9-337.5,588.9 M-325.6,571.6c4.6-1.9,9.1-2.9,14.3-2.2c0.6,0.1,0.5,0.6-0.1,0.6h-0.7
		c-4.1,0.1-10.2,1.4-13.5,3.1c-0.1,2.1,0.3,5.5,0.7,8.1c2.8-1.2,7.3-2.4,10.7-2.8c-1.9-2-4.6-3.9-4.9-4.1c-0.3-0.2-0.5-0.6-0.5-1.1
		c0-0.9,0.8-1,1.2-0.9c1.4-0.3,2.8-0.6,5.2-0.5c10-0.4,19.2,5.3,22.8,11.7c8.9,14.1,0,33.4-11.6,38.6c-5,2.2-9.2,3.1-17.1,2
		s-14.3-5-19.3-13.1c-6.2-10-2.7-21.6-1.8-24.1C-336.5,578.3-330.4,573.6-325.6,571.6 M-336,582.2c-0.1,1,0,3,0.3,5.4
		c2.1-1.9,6.3-4.5,9.7-6c-0.4-2.6-0.8-6.8-0.8-8c-3.2,1.7-6.7,5.3-9.3,8.9 M-335.6,589.6c0.3,2.1,1.3,6.6,2.2,8.9
		c2.1-1.6,7-4.6,9.7-5.8c-0.9-3.5-1.6-5.7-2.1-9.2C-329.6,585.2-333.7,587.9-335.6,589.6 M-332.5,600.5c1.3,3.6,2.5,6.4,4.1,8.7
		c1.9-1.6,5.8-4.3,8.7-5.6c-1-2.1-2.3-6-3.3-8.9C-326.9,596.6-329.7,598.3-332.5,600.5 M-327.2,610.8c2,2.5,5.2,5.8,7.3,7.6
		c2-1.6,4.4-3.2,6.3-4.1c-1.7-2.6-4.1-6.4-5.2-8.7C-322.5,607.2-324.5,608.5-327.2,610.8 M-318.7,619.5c0.8,0.8,3.9,2.8,3.9,2.8
		c2.1,0.1,4.8-0.2,6.6-0.5c-1-1.2-3.6-4.9-4.5-6.1C-314.5,616.6-317,618.1-318.7,619.5 M-305.9,621.4c1-0.3,3.7-1.5,4.4-1.9
		c0.1-2.1,0.1-4.7,0-6.1c-2.8,0-6.8,0.8-9.1,1.8C-309.4,617.2-307.5,619.6-305.9,621.4 M-300.1,618.7c2.1-1.3,4.1-2.8,5.6-4.7
		c-1.2-0.3-4-0.7-5.4-0.6C-299.9,613.3-300,616.6-300.1,618.7 M-293.9,613.1c0.4-0.4,1-1.2,1.2-1.7c0.2-2,0.2-6.2,0.2-7.4
		c-2.4-1-6.2-1.7-8.9-1.9c0.9,3.2,1.3,8.1,1.4,9.6C-298.7,611.8-295.4,612.5-293.9,613.1 M-290.3,603.8c-0.1,0.4-0.8,0.8-1.1,0.7
		c0,0.7-0.1,4-0.3,5.4c0.5-0.9,1.3-3.3,1.6-4.4l0.4-1.5c0.4-1.2,1.6-5.6,0.5-11.3c-1.2-6.4-3.5-8.6-4.4-9.6c-2-1.1-5.2-2.1-5.2-2.1
		c2.8,3.7,3.7,5.6,5.5,10.1c1,0.5,2.7,1.5,2.9,1.7c0.2,0.2,0.2,0.6-0.4,0.6c-0.5,0-1.3-0.4-2-0.6c0.7,2.4,1.3,7.1,1.2,10.1
		C-291.4,602.8-290.2,603.4-290.3,603.8 M-295,580.9c-3.8-4.8-12.6-8.8-22.5-8.2c2.2,1.4,4,3.6,5.6,5.4c2.4-0.2,7.6,0.2,9.5,0.7
		c-0.3-0.4-0.7-0.8-0.8-1c-0.3-0.6,0.4-0.7,0.9-0.4c0.7,0.4,1.4,0.9,2,1.5C-299,579.3-296.3,580.2-295,580.9 M-292.5,602.3
		c-0.2-3-0.6-7.2-1.8-10c-3-1.2-7.1-1.9-10.7-2c1.1,2.6,2.4,7,3,9.7C-299.3,600.3-295.3,601-292.5,602.3 M-301,580.4
		c-2.7-0.5-6.7-0.8-9.6-0.6c2,2.7,3.4,5.2,4.9,8.6c3.7,0.1,8.8,1.2,10.8,2C-296.1,587.2-298.4,582.9-301,580.4 M-318,602.8
		c4.5-2,9.3-2.9,14.2-2.8c-1.3-4.7-2.1-6.8-3.2-9.6c-5.5,0.2-10.1,1.6-14.4,3.5C-321.4,594-319.8,598.9-318,602.8 M-303.3,601.9
		c-5.6-0.1-10.4,1.2-13.7,2.9c1.4,3,4.1,7,5.3,8.7c1.8-0.7,3.7-1.2,5.3-1.4c1.5-0.2,3.5-0.4,4.9-0.4
		C-302,608.1-302.4,605.7-303.3,601.9 M-322,592c4-1.7,8.4-3,14.2-3.5c-1.5-3.5-3.1-6.1-5.1-8.4c-4.4,0.3-8.3,1.5-11.6,2.9
		C-324,585.6-323.1,588.8-322,592"/>
</g>
</svg>
