<?xml version="1.0" encoding="utf-8"?>
<!-- Generator: Adobe Illustrator 19.1.0, SVG Export Plug-In . SVG Version: 6.00 Build 0)  -->
<svg version="1.1" id="Capa_1" xmlns="http://www.w3.org/2000/svg" xmlns:xlink="http://www.w3.org/1999/xlink" x="0px" y="0px"
	 viewBox="0 0 369.5 184.5" style="enable-background:new 0 0 369.5 184.5;" xml:space="preserve">
<g>
	<path d="M86.1,30c-2.8-0.7-5.1-1.9-7.1-3.5c-0.2,0.6-0.3,1.2-0.3,1.6c0,2,2.3,3.5,6.8,4.5l-2.8,14.1c-0.4,1.9-0.5,3-0.5,3.4
		c0,0.8,0.5,1.1,1.4,1.1c1.5,0,3.1-0.5,5-1.4c-0.2-0.6-0.4-1.1-0.4-1.6c0-0.5,0.2-1.6,0.5-3.3l2.4-11.8l1.5,0c6,0,11.2-1.7,15.6-5.2
		c4.5-3.5,6.7-7.5,6.7-12.1c0-6.3-4.3-9.5-12.9-9.5c-5.7,0-10.9,1.2-15.8,3.5c-4.9,2.3-7.3,4.9-7.3,7.6c0,0.6,0.2,1.5,0.6,2.6
		c5.1-7,11.8-10.6,20.3-10.6c2.8,0,5.1,0.7,6.8,2c1.7,1.3,2.6,3.1,2.6,5.3c0,4-1.6,7.3-4.9,9.8s-7.5,3.8-12.7,3.8l1.9-9.5
		c0.6-2.8,0.9-4.4,0.9-4.7c0-1.3-0.6-1.9-1.7-1.9c-0.9,0-2.6,0.4-5,1.3c0.4,0.5,0.6,1.1,0.6,1.7c0,0.6-0.2,1.7-0.5,3.3L86.1,30z"/>
	<path d="M123.9,47.9c2.5,0,5.4-1.7,8.8-5c3.4-3.3,6.2-7.4,8.5-12.2c-0.1,2.3-0.2,4.1-0.2,5.4c0,6.5,1.9,9.7,5.8,9.7
		c3.1,0,6.8-2,11-5.9c1.3-1.2,2.6-2.6,3.8-4c0,3.8,1.1,6.8,3.2,9.2c2.2,2.4,5,3.6,8.4,3.6c4.2,0,8.7-2.1,13.6-6.3
		c3.4-2.9,6.6-6.6,9.7-10.9c-0.1,0.8-0.3,1.6-0.5,2.4l-0.6,3c-0.4,1.8-0.5,3-0.5,3.9c0,2.1,0.6,3.9,1.8,5.2c1.2,1.3,2.9,2,4.9,2
		c3.3,0,7-2,11.2-6c2.5-2.4,4.9-5.3,7.4-8.8l-3.3,16.5c-0.6,3-0.9,5.2-0.9,6.5c0,1.7,0.7,2.5,2.2,2.5c1,0,2.4-0.3,4.2-0.9
		c-0.5-0.9-0.7-1.8-0.7-2.9c0-1.7,0.2-3.6,0.7-5.9l4.6-23.1h8.1c3,0,5.3-0.1,6.8-0.3c-0.1,1.8-0.5,4.6-1.3,8.4l-0.6,3
		c-0.4,1.8-0.5,3-0.5,3.9c0,2.1,0.6,3.9,1.8,5.2c1.2,1.3,2.9,2,4.9,2c3.3,0,7-2,11.2-6c1.6-1.6,3.2-3.3,4.8-5.4
		c0.1,3.5,1.2,6.4,3.2,8.7c2.2,2.4,5,3.6,8.4,3.6c4.2,0,8.7-2.1,13.6-6.3c4.9-4.2,9.5-9.9,13.8-17.2l-2.3-1.3
		c-8.9,13.7-16.6,20.6-23.3,20.6c-2.4,0-4.4-0.9-5.9-2.7c-1.5-1.8-2.3-4.2-2.3-7.1c0-3.6,1.1-6.8,3.4-9.8c2.3-3,4.7-4.5,7.4-4.5
		c3.1,0,4.6,1.5,4.6,4.4c0,0.4-0.1,0.8-0.3,1.2c3.4-1,5-2.5,5-4.5c0-1.2-0.7-2.2-2-3s-3-1.2-5-1.2c-5,0-9.4,1.9-13.1,5.6
		c-2.4,2.4-4,5-4.8,7.9c-2.1,2.8-4.2,5.3-6.3,7.5c-3.7,3.8-6.7,5.7-9,5.7c-1.9,0-2.8-1.1-2.8-3.3c0-0.8,0.3-2.4,0.8-4.9l1.1-5.3
		c0.5-2.6,0.8-4.6,0.8-6c0-1.2-0.3-2-0.9-2.5c0-0.1,0.1-0.1,0.1-0.2c-0.1,0-0.2,0-0.3,0.1c-0.3-0.1-0.6-0.2-0.9-0.2
		c-0.6,0-2,0.3-4.2,0.8c-1.2,0.1-2.6,0.1-4.1,0.1h-9.4l1.2-6c1.8-8.9,4.7-13.3,8.8-13.3c2.3,0,3.8,1.4,4.4,4.1
		c2.3-1.3,3.5-2.5,3.5-3.6c0-1-0.6-1.9-1.7-2.6c-1.1-0.7-2.4-1.1-4-1.1c-4,0-7.6,1.7-10.9,5c-2.6,2.7-4.6,7-5.8,13.1l-0.9,4.5h-1
		c-2.7,0-4.4,0.3-5.3,0.9c-0.8,0.6-1.5,2.1-1.9,4.4c2-1.3,4.3-2,7-2h0.5l0,0.2c-3.1,4.9-6.3,9-9.6,12.3c-3.7,3.8-6.7,5.7-9,5.7
		c-1.9,0-2.8-1.1-2.8-3.3c0-0.8,0.3-2.4,0.8-4.9l1.1-5.3c0.5-2.6,0.8-4.6,0.8-6c0-1.9-0.7-2.8-2-2.8c-0.6,0-2.1,0.3-4.4,0.8
		c0.6,0.6,0.9,1.5,0.9,2.5c0,0.1,0,0.3,0,0.5c-8.5,12.7-15.9,19.1-22.2,19.1c-2.4,0-4.4-0.9-5.9-2.7c-1.5-1.8-2.3-4.2-2.3-7.1
		c0-3.6,1.1-6.8,3.4-9.8c2.3-3,4.7-4.5,7.4-4.5c3.1,0,4.6,1.5,4.6,4.4c0,0.4-0.1,0.8-0.3,1.2c3.4-1,5-2.5,5-4.5c0-1.2-0.7-2.2-2-3
		s-3-1.2-5-1.2c-5,0-9.4,1.9-13.1,5.6c-2.1,2.1-3.6,4.5-4.5,7c-1.8,2.3-3.6,4.4-5.5,6.2c-3.4,3.2-6,4.9-8,4.9c-1.8,0-2.8-2-2.8-5.9
		c0-3.4,0.3-6.4,0.8-9l0.5-2.3c0.5-2.7,1.3-4.9,2.3-6.4c-0.5,0-0.8,0-1.1,0c-3.3,0-5.3,0.8-5.7,2.5c-3.2-1.7-6.1-2.5-8.8-2.5
		c-4.5,0-8.4,2.1-11.8,6.4s-5.1,9.2-5.1,14.9c0,2.8,0.6,5.1,1.7,6.8S122,47.9,123.9,47.9z M126,25.6c2-3.3,4.3-4.9,7-4.9
		c2.5,0,5.6,1.2,9.4,3.7c-0.6,0.9-1,1.4-1.1,1.5c-7.3,11.3-12.2,16.9-14.8,16.9c-2.4,0-3.6-1.8-3.6-5.4
		C123.1,32.8,124.1,28.9,126,25.6z"/>
	<path d="M201.8,16.3c1.1,0,3.1-1.3,6.2-3.8c2-1.7,3.4-3.7,4.2-6.2c-1.3,1.2-3,2.4-5.3,3.6c-2.3,1.2-4,1.8-5.2,1.8l-0.4,0
		c-0.4,1-0.6,2.1-0.6,3.4C200.7,15.9,201.1,16.3,201.8,16.3z"/>
	<path d="M246.3,16.3c1.1,0,3.1-1.3,6.2-3.8c2-1.7,3.4-3.7,4.2-6.2c-1.3,1.2-3,2.4-5.3,3.6c-2.3,1.2-4,1.8-5.2,1.8l-0.4,0
		c-0.4,1-0.6,2.1-0.6,3.4C245.2,15.9,245.6,16.3,246.3,16.3z"/>
	<path d="M27,90.3c5.4-3.4,8.2-7,8.2-10.8c0-2.1-1-3.7-3.1-5c-2.1-1.3-4.8-1.9-8.1-1.9c-6,0-11.5,1.3-16.5,3.9C2.5,79.1,0,81.9,0,85
		c0,0.9,0.2,1.8,0.7,2.8c6.2-7.7,13.4-11.5,21.4-11.5c5,0,7.4,1.6,7.4,4.9c0,2.8-1.9,5.5-5.7,8.3c-0.8-0.1-1.4-0.1-1.8-0.1
		c-1.7,0-3,0.3-3.8,1c-0.8,0.7-1.4,2-2,3.9c0.7,0.2,1.3,0.2,1.8,0.2c1.4,0,2.7-0.2,3.8-0.7c3.3,0.7,5.6,1.7,7,2.9
		c1.4,1.3,2.1,3,2.1,5.2c0,2.9-1.3,5.3-3.8,7.4s-5.6,3.1-9.1,3.1c-4.3,0-6.5-1.1-6.5-3.4c0-0.6,0.2-2,0.6-4l3.5-17.7
		c0.6-2.8,0.9-4.4,0.9-4.8c0-1.3-0.6-1.9-1.7-1.9c-1,0-2.6,0.4-5,1.3c0.4,0.5,0.6,1.1,0.6,1.7c0,0.6-0.2,1.7-0.5,3.3L6.3,106
		c-0.5,2.7-0.8,4.4-0.8,5.2c0,3.1,2.5,4.7,7.4,4.7c6.7,0,12.5-1.5,17.2-4.6c4.7-3.1,7.1-6.8,7.1-11.1c0-2.2-0.9-4.2-2.7-5.9
		S30.2,91.2,27,90.3z"/>
	<path d="M52.7,82.6c1.1,0,3.1-1.3,6.2-3.8c2-1.7,3.4-3.7,4.2-6.2c-1.3,1.2-3,2.4-5.3,3.6c-2.3,1.2-4,1.8-5.2,1.8l-0.4,0
		c-0.4,1-0.6,2.1-0.6,3.4C51.6,82.2,52,82.6,52.7,82.6z"/>
	<path d="M92.5,108.4c3.5-3.9,5.3-8.4,5.3-13.6c0-0.3,0-0.7-0.1-1.2c2.5,0.8,4.8,1.2,6.8,1.2c1,0,2.1-0.1,3.1-0.4
		c-1.5,3.2-2.3,6.6-2.3,10.4c0,2.8,0.6,5.1,1.7,6.8c1.1,1.7,2.7,2.5,4.6,2.5c2.4,0,5.1-1.5,8.2-4.4c3.1-3,6-7,8.8-12
		c-0.4,2.7-0.7,5.3-0.7,7.7c0,5.8,1.8,8.7,5.4,8.7c2.9,0,6.7-2.3,11.5-6.9c2.9-2.8,5.5-5.8,7.8-9c-0.1,0.6-0.2,1.3-0.4,2l-0.6,3
		c-0.4,1.8-0.5,3-0.5,3.9c0,2.1,0.6,3.9,1.8,5.2c1.2,1.3,2.9,2,4.9,2c3.3,0,7-2,11.2-6c3.4-3.3,6.8-7.7,10.2-13.1
		c0,0.1,0.1,0.3,0.1,0.4c1.9,5.4,2.8,10.3,2.8,14.7c0,1.2-0.2,2.5-0.6,4.1c2.3-0.2,4-0.5,5-1.1c1-0.5,2.2-1.7,3.7-3.6
		c3-3.8,5.8-7.9,8.4-12.2c2.6-4.3,3.9-7.1,3.9-8.3c0-1.4-1.3-2.6-4-3.7c-0.3,3.1-1.4,6.7-3.5,11c-2,4.2-4.6,8.4-7.8,12.4
		c-0.9-7.4-2.3-13.6-4.4-18.8c-2-5.2-4-7.8-6-7.8c-1.2,0-2.6,0.4-4.2,1.2c2,2.1,3.7,5,5.3,8.7c-3.2,5-6.4,9.2-9.8,12.6
		c-3.7,3.8-6.7,5.7-9,5.7c-1.9,0-2.8-1.1-2.8-3.3c0-0.8,0.3-2.4,0.8-4.9l1.1-5.3c0.5-2.6,0.8-4.6,0.8-6c0-1.9-0.7-2.8-2-2.8
		c-0.6,0-2.1,0.3-4.4,0.8c0.6,0.6,0.9,1.5,0.9,2.5c0,0.2,0,0.4,0,0.7c-2.5,3.8-5.5,7.4-8.9,11c-4,4-6.9,6.1-8.6,6.1
		c-1.8,0-2.6-1.5-2.6-4.6c0-2.3,0.3-5.1,1-8.4l5.9-29.6c-3.1,1.2-6.3,1.8-9.6,1.8c-2.7,0-4.7-0.4-6-1.3c0.4,2.1,1,3.5,1.8,4.2
		c0.7,0.8,1.9,1.1,3.5,1.1c1,0,2.4-0.2,3.9-0.5l-2.9,14.5c-3.2-1.7-6.1-2.6-8.8-2.6c-4.5,0-8.4,2.1-11.8,6.4
		c-0.2,0.2-0.3,0.4-0.4,0.6c-1.7,0.7-3.3,1.1-4.8,1.1c-3.2,0-6.3-1-9.3-3c-2.9-4.1-6.6-6.4-11-6.7c-0.6,0.8-0.9,1.6-0.9,2.5
		c0,0.6,0.2,1.2,0.7,2c-0.7-0.2-1.3-0.2-1.9-0.2c-4,0-7.5,1.5-10.4,4.6c-2.2,2.3-3.6,5-4.1,8c-1.6,2.1-3.3,4-5,5.7
		c-3.7,3.8-6.7,5.7-9,5.7c-1.9,0-2.8-1.1-2.8-3.3c0-0.8,0.3-2.4,0.8-4.9l1.1-5.3c0.5-2.6,0.8-4.6,0.8-6c0-1.9-0.7-2.8-2-2.8
		c-0.6,0-2.1,0.3-4.4,0.8c0.6,0.6,0.9,1.5,0.9,2.5c0,1.7-0.4,4.7-1.3,9l-0.6,3c-0.4,1.8-0.5,3-0.5,3.9c0,2.1,0.6,3.9,1.8,5.2
		c1.2,1.3,2.9,2,4.9,2c3.3,0,7-2,11.2-6c1.4-1.3,2.7-2.8,4-4.4c0.3,2.8,1.4,5.1,3.3,7c2.3,2.3,5.2,3.5,8.8,3.5
		C84.8,114.2,88.9,112.3,92.5,108.4z M120.7,86.9c2.5,0,5.6,1.2,9.3,3.7c-0.5,0.8-0.9,1.3-1,1.5c-7.3,11.3-12.2,16.9-14.7,16.9
		c-2.4,0-3.6-1.8-3.6-5.4c0-4.5,1-8.4,3-11.7C115.7,88.6,118,86.9,120.7,86.9z M81.1,111.2c-2.2,0-4.1-0.8-5.5-2.5
		c-1.4-1.6-2.1-3.7-2.1-6.3c0-3.5,1.2-6.7,3.5-9.4c2.4-2.7,5.1-4.1,8.1-4.1c0.6,0,1.4,0.1,2.3,0.3c1.3,1,2.6,1.7,4.1,2.2
		c0.5,1.4,0.7,2.8,0.7,4.3c0,4.2-1.1,7.9-3.3,11C86.8,109.7,84.1,111.2,81.1,111.2z"/>
	<path d="M157.7,77.9l-0.4,0c-0.4,1-0.6,2.1-0.6,3.4c0,0.9,0.4,1.3,1.1,1.3c1.1,0,3.1-1.3,6.2-3.8c2-1.7,3.4-3.7,4.2-6.2
		c-1.3,1.2-3,2.4-5.3,3.6C160.6,77.3,158.9,77.9,157.7,77.9z"/>
	<path d="M252,96.7c3.5-4.9,6.4-7.3,8.7-7.3c1.3,0,2.2,0.7,2.9,2.1c2.7-2.1,4.1-3.8,4.1-5c0-0.8-0.4-1.5-1.1-2.1
		c-0.7-0.6-1.6-0.8-2.6-0.8c-2.8,0-5.9,1.8-9.4,5.5c-3.4,3.7-6.9,8.8-10.3,15.4l1.5-7.8c0.9-4.2,1.3-6.8,1.3-7.8
		c0-1.6-0.6-2.4-1.9-2.4c-1.2,0-2.7,0.3-4.6,1c0.6,0.7,0.9,1.6,0.9,2.6c0,0.4,0,0.9-0.1,1.4c-3.5,5.4-7.4,9.8-11.7,13.2
		c-4.7,3.7-8.9,5.5-12.8,5.5c-4.5,0-6.7-2.6-6.7-7.9c5,0,9.5-1.2,13.4-3.7c3.9-2.5,5.8-5.3,5.8-8.5c0-2-0.7-3.5-2.1-4.7
		c-1.4-1.2-3.3-1.8-5.6-1.8c-4.8,0-8.9,1.9-12.3,5.6c-3.4,3.7-5.1,8.2-5.1,13.4c0,3.6,0.9,6.5,2.8,8.5c1.9,2.1,4.4,3.1,7.7,3.1
		c5.1,0,10.4-2.2,16-6.5c3.7-2.8,6.9-6.1,9.6-9.8c-0.1,0.3-0.1,0.6-0.2,1l-1.3,6.7c-0.6,3.3-1,5.3-1,6.2c0,1.6,0.9,2.4,2.8,2.4
		c0.7,0,1.7-0.3,3-0.9l0-0.5c0-1.4,0.8-3.7,2.4-6.9C247.9,102.8,249.8,99.7,252,96.7z M214.5,90.2c2.1-2.6,4.3-3.9,6.8-3.9
		c2,0,3.1,1.1,3.1,3.4c0,2.6-1.3,4.8-4,6.8c-2.7,2-5.9,3-9.7,3.2C211.2,96,212.5,92.8,214.5,90.2z"/>
	<path d="M298.9,77.9c-0.4,1-0.6,2.1-0.6,3.4c0,0.9,0.4,1.3,1.1,1.3c1.1,0,3.1-1.3,6.2-3.8c2-1.7,3.4-3.7,4.2-6.2
		c-1.3,1.2-3,2.4-5.3,3.6c-2.3,1.2-4,1.8-5.2,1.8L298.9,77.9z"/>
	<path d="M318.1,94.2c-2.7,4-5.5,7.5-8.3,10.4c-3.7,3.8-6.7,5.7-9,5.7c-1.9,0-2.8-1.1-2.8-3.3c0-0.8,0.3-2.4,0.8-4.9l1.1-5.3
		c0.5-2.6,0.8-4.6,0.8-6c0-1.9-0.7-2.8-2-2.8c-0.6,0-2.1,0.3-4.4,0.8c0.6,0.6,0.9,1.4,0.9,2.3c-2.2,2.4-4,4.3-5.5,5.5
		c-1.7,1.5-4.3,3.2-7.8,5.3l-2.4-4.4l-3.1-5.7c3.1-1.9,4.7-3.8,4.7-5.8c0-1.4-1.2-2.6-3.7-3.5c-4,2.1-6,4.8-6,8.3
		c0,2.4,1.3,5.7,3.9,9.9l2.2,3.5c-4.1,2-7.1,3.7-8.8,5.1c-1.8,1.4-2.6,2.9-2.6,4.3c0,1.3,0.6,2.4,1.9,3.4c1.3,0.9,2.8,1.4,4.6,1.4
		c3.1,0,5.8-1,8.1-3.1s3.5-4.4,3.5-7.2c0-1.2-0.3-2.5-0.9-3.9c4.4-2.5,8.2-5.4,11.4-8.7c-0.2,1.4-0.5,3-0.9,4.9l-0.6,3
		c-0.4,1.8-0.5,3-0.5,3.9c0,2.1,0.6,3.9,1.8,5.2c1.2,1.3,2.9,2,4.9,2c3.3,0,7-2,11.2-6c2.1-2,4.2-4.5,6.3-7.3
		c-0.1,1.1-0.2,2.1-0.2,3c0,3,0.7,5.5,2,7.4c1.4,1.9,3.1,2.9,5.3,2.9c2.4,0,5.2-1.1,8.1-3.2c3-2.1,4.5-4.1,4.5-5.8
		c0-0.7-0.2-1.4-0.7-2.3c-0.8,1.7-2.1,3.1-3.9,4.5c-1.8,1.3-3.5,2-5.1,2c-3,0-4.5-2.1-4.5-6.3c0-3.8,1.1-9.4,3.3-16.8
		c0.1-0.3,0.2-0.7,0.4-1.3h15.2c2,0,3.4-0.3,4.2-0.8c0.7-0.6,1.3-1.8,1.8-3.6c-1.3,0.6-3.2,1-5.7,1h-14.2c1.5-4.3,3-7.3,4.4-9.1
		c-0.6,0-1-0.1-1.3-0.1c-2.3,0-4,0.5-5.2,1.6c-1.2,1-2.1,2.9-3,5.7l-0.5,1.9h-4.1c-1.6,0-2.8,0.2-3.5,0.7s-1.5,1.7-2.6,3.6
		c1.1-0.5,2.7-0.8,4.6-0.8h4.6l-1.2,4.5C318.9,91.1,318.5,92.7,318.1,94.2z M277.8,113.7c-1,1.1-2.3,1.6-3.9,1.6
		c-2.1,0-3.2-0.7-3.2-2.2c0-1.6,2.6-3.8,7.9-6.6c0.4,1,0.6,2.1,0.6,3.1C279.3,111.2,278.8,112.6,277.8,113.7z"/>
	<path d="M364.7,83.6c-0.5,7.2-3.8,15.6-9.9,25.2c-0.9-4.2-2.3-8.9-4.2-14c-1.2-3.3-2.2-5.5-3-6.6c-0.8-1.1-1.8-1.6-3-1.6
		c-1.4,0-2.8,0.6-4.1,1.7c2.3,2.5,4.4,6.1,6.4,10.8s3.3,9.5,4.1,14.3c-4.8,7-9.8,10.4-15.1,10.4c-1.5,0-2.7-0.3-3.7-0.9
		c-0.4,1.1-0.6,2.1-0.6,2.9c0,2,1.2,3,3.6,3c2.7,0,5.9-1.5,9.6-4.5c3.7-3,7.5-7,11.2-12.2c3.3-4.5,6.3-9.4,9.2-14.8
		s4.2-8.9,4.2-10.7C369.5,85.1,367.9,84.1,364.7,83.6z"/>
	<path d="M74,138.1c-1.6,0-3.8,0.3-6.8,0.8l-4.3,0.8c-2.5,0.5-4.4,0.7-5.7,0.7c-1.1,0-1.9-0.2-2.6-0.7c0,2.9,1.2,4.4,3.7,4.4
		c1.4,0,3.1-0.2,5-0.5l-6.7,33.6c-1.8,0.3-3,0.4-3.8,0.4c-1.4,0-2.7-0.4-4-1.1c0.1,1.9,0.5,3.2,1.1,3.9c0.6,0.7,1.7,1.1,3.2,1.1
		c0.9,0,2.4-0.2,4.6-0.5l6.1-0.8c2-0.3,3.7-0.4,5.2-0.4c1.5,0,2.8,0.2,4.2,0.7c0-3.3-1.2-4.9-3.5-4.9c-1.4,0-3.9,0.2-7.3,0.7
		l6.7-33.5c0.5-0.1,0.9-0.1,1.2-0.2c1.7-0.3,3.3-0.4,4.7-0.4c1.1,0,2.1,0.2,3.2,0.7C77.8,139.7,76.4,138.1,74,138.1z"/>
	<path d="M160.5,151.2h15.2c2,0,3.4-0.3,4.2-0.8c0.7-0.5,1.2-1.6,1.7-3.2c0,0.1,0,0.2,0,0.4c0,0.9,0.4,1.3,1.1,1.3
		c1.1,0,3.1-1.3,6.2-3.8c2-1.7,3.4-3.7,4.2-6.2c-1.3,1.2-3,2.4-5.3,3.6c-2.3,1.2-4,1.8-5.2,1.8l-0.4,0c-0.3,0.8-0.5,1.7-0.6,2.6
		c-1.3,0.6-3.2,0.9-5.6,0.9h-14.2c1.5-4.3,3-7.3,4.4-9.1c-0.6,0-1-0.1-1.3-0.1c-2.3,0-4,0.5-5.2,1.6c-1.2,1-2.1,2.9-3,5.7l-0.5,1.9
		H152c-1.6,0-2.8,0.2-3.5,0.7c-0.7,0.5-1.5,1.7-2.6,3.6c1.1-0.5,2.7-0.8,4.6-0.8h4.6l-1.2,4.5c-0.3,0.9-0.5,1.8-0.7,2.6
		c-1.7,1.9-3.3,3.4-4.5,4.5c-1.7,1.5-4.3,3.2-7.8,5.3l-2.4-4.4l-3.1-5.7c3.1-1.9,4.7-3.8,4.7-5.8c0-1.4-1.2-2.6-3.7-3.5
		c-4,2.1-6,4.8-6,8.3c0,0.3,0,0.7,0.1,1c-4,6.6-6.9,11-8.7,13.3c-2,2.5-3.7,3.7-5.3,3.7c-1,0-1.7-0.7-2.1-2.2
		c-0.4-1.4-0.6-4.1-0.6-7.8l-0.1-3.3c0-7.9-2-11.9-6-11.9c-5.1,0-10.8,6.8-17.2,20.3l0.7-7.5c0.1-0.5,0.1-1.1,0.2-1.6
		c0.3-2.6,0.4-4.5,0.4-5.6c0-2-0.7-3.1-2.1-3.1c-0.7,0-1.6,0.2-2.7,0.6c-0.9,0.3-1.5,0.5-1.9,0.6c0.9,1.1,1.3,2.6,1.3,4.5
		c0,1.4-0.1,3.3-0.4,5.8l-0.6,5.9c-0.5,4.6-0.7,7.2-0.7,7.8c0,2,0.9,3,2.7,3c0.7,0,1.6-0.2,2.6-0.6c-0.2-0.4-0.4-0.8-0.4-1.2
		c0-1.1,0.7-2.8,2.1-5.2c0.4-0.7,1.2-2.2,2.5-4.5c5.3-9.5,9.1-14.2,11.5-14.2c0.9,0,1.6,0.6,2,1.8s0.6,3.3,0.6,6.2l0,2.3
		c0,5.4,0.5,9.3,1.4,11.5c0.9,2.2,2.5,3.3,4.8,3.3c2.5,0,5.3-1.8,8.4-5.4c2.6-3,5.4-7.2,8.5-12.8c0.7,1.6,1.6,3.3,2.8,5.2l2.2,3.5
		c-4.1,2-7.1,3.7-8.8,5.1c-1.8,1.4-2.6,2.9-2.6,4.3c0,1.3,0.6,2.4,1.9,3.4c1.3,0.9,2.8,1.4,4.6,1.4c3.1,0,5.8-1,8.1-3.1
		s3.5-4.4,3.5-7.2c0-1.2-0.3-2.5-0.9-3.9c3.7-2.1,6.9-4.4,9.7-7c-0.5,2.7-0.8,5-0.8,6.9c0,3,0.7,5.5,2,7.4c1.4,1.9,3.1,2.9,5.3,2.9
		c2.4,0,5.2-1.1,8.1-3.2c3-2.1,4.5-4.1,4.5-5.8c0-0.7-0.2-1.4-0.7-2.3c-0.8,1.7-2.1,3.1-3.9,4.5c-1.8,1.3-3.5,2-5.1,2
		c-3,0-4.5-2.1-4.5-6.3c0-3.8,1.1-9.4,3.3-16.8C160.2,152.2,160.3,151.8,160.5,151.2z M136.7,180c-1,1.1-2.3,1.6-3.9,1.6
		c-2.1,0-3.2-0.7-3.2-2.2c0-1.6,2.6-3.8,7.9-6.6c0.4,1,0.6,2.1,0.6,3.1C138.2,177.5,137.7,178.9,136.7,180z"/>
	<path d="M215.2,173.6c-1.8,1.3-3.5,2-5.1,2c-3,0-4.5-2.1-4.5-6.3c0-3.8,1.1-9.4,3.3-16.8c0.1-0.3,0.2-0.7,0.4-1.3h15.2
		c2,0,3.4-0.3,4.2-0.8c0.7-0.6,1.3-1.8,1.8-3.6c-1.3,0.6-3.2,1-5.7,1h-14.2c1.5-4.3,3-7.3,4.4-9.1c-0.6,0-1-0.1-1.3-0.1
		c-2.3,0-4,0.5-5.2,1.6c-1.2,1-2.1,2.9-3,5.7l-0.5,1.9h-4.1c-1.6,0-2.8,0.2-3.5,0.7c-0.7,0.5-1.5,1.7-2.6,3.6
		c1.1-0.5,2.7-0.8,4.6-0.8h4.6l-1.2,4.5c-0.5,1.7-0.9,3.2-1.2,4.7c-2.7,4-5.5,7.5-8.3,10.4c-3.7,3.8-6.7,5.7-9,5.7
		c-1.9,0-2.8-1.1-2.8-3.3c0-0.8,0.3-2.4,0.8-4.9l1.1-5.3c0.5-2.6,0.8-4.6,0.8-6c0-1.9-0.7-2.8-2-2.8c-0.6,0-2.1,0.3-4.4,0.8
		c0.6,0.6,0.9,1.5,0.9,2.5c0,1.7-0.4,4.7-1.3,9l-0.6,3c-0.4,1.8-0.5,3-0.5,3.9c0,2.1,0.6,3.9,1.8,5.2c1.2,1.3,2.9,2,4.9,2
		c3.3,0,7-2,11.2-6c2.1-2,4.2-4.5,6.3-7.3c-0.1,1.1-0.2,2.1-0.2,3c0,3,0.7,5.5,2,7.4c1.4,1.9,3.1,2.9,5.3,2.9c2.4,0,5.2-1.1,8.1-3.2
		c3-2.1,4.5-4.1,4.5-5.8c0-0.7-0.2-1.4-0.7-2.3C218.3,170.8,217,172.3,215.2,173.6z"/>
	<path d="M282.6,173.6c-1.8,1.3-3.5,2-5.1,2c-3,0-4.5-2.1-4.5-6.3c0-3.8,1.1-9.4,3.3-16.8c0.1-0.3,0.2-0.7,0.4-1.3h15.2
		c2,0,3.4-0.3,4.2-0.8c0.7-0.6,1.3-1.8,1.8-3.6c-1.3,0.6-3.2,1-5.7,1h-14.2c1.5-4.3,3-7.3,4.4-9.1c-0.6,0-1-0.1-1.3-0.1
		c-2.3,0-4,0.5-5.2,1.6c-1.2,1-2.1,2.9-3,5.7l-0.5,1.9h-4.1c-1.6,0-2.8,0.2-3.5,0.7s-1.5,1.7-2.6,3.6c1.1-0.5,2.7-0.8,4.6-0.8h4.6
		l-1.2,4.5c-0.5,1.9-1,3.6-1.4,5.3c-5.3,8.8-9.7,13.1-13.4,13.1c-1.9,0-2.9-2-2.9-5.9c0-2.6,0.3-5.4,0.9-8.3l0.3-1.3
		c0.1-0.5,0.3-1.2,0.5-2.1c0.3-1.3,0.5-2,0.5-2.2c0.3-1,0.4-1.7,0.5-2c0.1-0.4,0.2-0.8,0.2-1c0-1-0.8-1.5-2.4-1.5
		c-1,0-2.3,0.2-3.7,0.6c0.2,0.4,0.3,0.7,0.3,1.1c0,2.6-1.9,6.9-5.7,12.9c-4.6,7.4-8.4,11.1-11.4,11.1c-1.8,0-2.8-1.3-2.8-4
		c0-1.7,0.4-4.2,1.2-7.5l0.4-1.6c0.1-0.4,0.3-1.2,0.6-2.3c1-3.7,1.6-5.9,1.6-6.6c0-1.2-0.8-1.9-2.4-1.9l-3.7,0
		c0.3,0.6,0.5,1.2,0.5,1.8s-0.3,1.8-0.8,3.9c-1.9,7.6-2.9,12.8-2.9,15.6c0,2.2,0.6,4,1.8,5.4c1.2,1.4,2.8,2.1,4.8,2.1
		c2.4,0,5.2-1.6,8.2-4.8c3.1-3.2,5.8-7.4,8.3-12.5c-0.1,2-0.2,3.7-0.2,5.1c0,7.1,2.1,10.7,6.2,10.7c4.4,0,9.1-3.7,14.1-10.9
		c-0.1,0.8-0.1,1.5-0.1,2.1c0,3,0.7,5.5,2,7.4c1.4,1.9,3.1,2.9,5.3,2.9c2.4,0,5.2-1.1,8.1-3.2c3-2.1,4.5-4.1,4.5-5.8
		c0-0.7-0.2-1.4-0.7-2.3C285.7,170.8,284.4,172.3,282.6,173.6z"/>
	<path d="M315.2,171c-4.7,3.7-8.9,5.5-12.8,5.5c-4.5,0-6.7-2.6-6.7-7.9c5,0,9.5-1.2,13.4-3.7c3.9-2.5,5.8-5.3,5.8-8.5
		c0-2-0.7-3.5-2.1-4.7c-1.4-1.2-3.3-1.8-5.6-1.8c-4.8,0-8.9,1.9-12.3,5.6c-3.4,3.7-5.1,8.2-5.1,13.4c0,3.6,0.9,6.5,2.8,8.5
		c1.9,2.1,4.4,3.1,7.7,3.1c5.1,0,10.4-2.2,16-6.5c5.6-4.3,10.2-9.8,13.7-16.3l-2.3-1.3C324.1,162.4,319.9,167.3,315.2,171z
		 M299.8,156.5c2.1-2.6,4.3-3.9,6.8-3.9c2,0,3.1,1.1,3.1,3.4c0,2.6-1.3,4.8-4,6.8c-2.7,2-5.9,3-9.7,3.2
		C296.5,162.3,297.7,159.1,299.8,156.5z"/>
</g>
</svg>
