<?xml version="1.0" encoding="utf-8"?>
<!-- Generator: Adobe Illustrator 16.0.0, SVG Export Plug-In . SVG Version: 6.00 Build 0)  -->
<!DOCTYPE svg PUBLIC "-//W3C//DTD SVG 1.1//EN" "http://www.w3.org/Graphics/SVG/1.1/DTD/svg11.dtd">
<svg version="1.1" id="Capa_1" xmlns="http://www.w3.org/2000/svg" xmlns:xlink="http://www.w3.org/1999/xlink" x="0px" y="0px"
	 width="202.703px" height="132.433px" viewBox="0 0 202.703 132.433" enable-background="new 0 0 202.703 132.433"
	 xml:space="preserve">
<g>
	
		<linearGradient id="SVGID_1_" gradientUnits="userSpaceOnUse" x1="93.7476" y1="19.0396" x2="118.9371" y2="92.873" gradientTransform="matrix(1.0656 0.1473 -0.1463 1.058 -11.6724 -22.3354)">
		<stop  offset="0.1335" style="stop-color:#298640"/>
		<stop  offset="0.2197" style="stop-color:#448E3F"/>
		<stop  offset="0.3912" style="stop-color:#7DA536"/>
		<stop  offset="0.6297" style="stop-color:#CACC05"/>
		<stop  offset="0.8062" style="stop-color:#FFED00"/>
	</linearGradient>
	<path fill-rule="evenodd" clip-rule="evenodd" fill="url(#SVGID_1_)" d="M102.593,6.524c34.428-0.164,55.84,18.746,68.801,44.612
		c-11.281-7.899-47.098-28.977-57.248-17.694c-4.604,5.116-9.096,10.107-13.09,12.643c-7.658-6.692-14.023-7.025-18.352-2.089
		c-3.702,4.224-3.489,5.361-9.782,11.543c-0.277,0.271-1.405,1.92-1.701,1.67c-3.961-3.374-9.969-10.257-17.494-8.958
		c-7.627,1.319-16.483,15.615-26.419,23.691c-5.158,4.194-5.523,6.135-6.763,7.576C26.347,40.609,68.162,6.69,102.593,6.524
		L102.593,6.524z"/>
	<path fill="#3C3C3B" d="M41.439,48.72c0.003-0.06-0.009-0.077-0.045-0.037L41.439,48.72L41.439,48.72z"/>
	
		<linearGradient id="SVGID_2_" gradientUnits="userSpaceOnUse" x1="96.499" y1="16.1855" x2="114.2322" y2="82.3666" gradientTransform="matrix(1.0092 0.0608 -0.065 1.0288 -5.2525 -12.1431)">
		<stop  offset="0" style="stop-color:#000000"/>
		<stop  offset="0.3322" style="stop-color:#343332"/>
		<stop  offset="0.5783" style="stop-color:#3C3C3B"/>
	</linearGradient>
	<path fill="url(#SVGID_2_)" d="M109.792,9.323c16.867,0.738,32.453,6.11,45.561,14.817c13.045,8.672,23.645,20.653,30.602,34.668
		c0.908,0.039,1.812,0.081,1.732,1.878c-0.074,1.673-0.867,1.756-1.703,1.729c-0.486,0.266-1.086,0.308-1.576-0.053
		c-7.488-5.513-25-16.771-40.145-22.028c-7.996-2.778-15.242-3.878-19.686-1.469c-0.041,0.042-0.092,0.079-0.131,0.122
		c-4.781,4.624-9.471,9.152-13.902,12.087c-0.418,0.304-0.838,0.594-1.246,0.869c0.367,0.4,0.738,0.815,1.115,1.251
		c0.596,0.682,1.188,1.363-0.189,2.536c-1.371,1.173-1.965,0.492-2.561-0.189c-0.705-0.814-1.389-1.553-2.057-2.224
		c-0.258-0.103-0.516-0.331-0.766-0.752c-0.039-0.037-0.078-0.073-0.117-0.112c-3.555-3.087-6.572-4.336-9.248-4.323
		c-1.846,0.009-3.59,0.627-5.28,1.666c-0.34,0.249-0.677,0.517-1.008,0.802c-2.115,1.811-4.2,4.284-6.35,6.837
		c-2.074,2.465-4.211,5.002-6.597,7.216c2.166,1.836,4.438,3.614,6.864,5.108c0.771,0.473,1.545,0.947,0.587,2.477
		c-0.959,1.529-1.73,1.055-2.501,0.581c-2.84-1.747-5.45-3.838-7.916-5.961c-0.405,0.035-0.862-0.174-1.429-0.867
		c-0.224-0.276-0.377-0.522-0.473-0.739c-0.021-0.02-0.043-0.041-0.068-0.06c-0.092-0.084-0.185-0.168-0.28-0.253
		c-0.937-0.831-0.784-0.699-0.355-0.317c-2.915-2.611-6.666-5.989-10.498-7.703c-1.707-0.766-3.464-1.196-5.202-1.051
		c-1.367,0.239-2.744,0.868-4.154,1.981c0,0-24.689,19.088-28.88,23.018c-0.104,0.391-0.331,0.709-0.881,0.85
		c-0.084,0.082-0.164,0.162-0.243,0.242c-1.012,1.021-2.936,0.01-2.654-1.386c4.263-21.22,16.168-39.631,32.631-52.431
		C67.012,15.52,87.667,8.356,109.792,9.323L109.792,9.323z M22.5,75.807c8.187-7.198,21.389-16.94,25.365-20.133l-0.031-0.035
		c9.176-8.065,16.279-1.738,24.708,5.768c0.319,0.285,0.642,0.57,0.967,0.86c1.553-1.415,3.027-3.026,4.46-4.682
		c0.234-0.274,0.467-0.551,0.697-0.828c0.742-0.878,1.475-1.749,2.182-2.565c1.967-2.33,3.906-4.549,5.977-6.321
		c5.493-4.698,11.474-6.209,19.781,1.381c4.617-2.499,9.902-7.608,15.316-12.843c10.557-10.205,42.506,7.786,58.305,18.376
		c-6.609-11.206-15.729-20.827-26.621-28.062c-12.652-8.406-27.689-13.594-43.961-14.305c-21.339-0.934-41.265,5.98-56.921,18.154
		C38.242,41.828,27.419,57.591,22.5,75.807L22.5,75.807z"/>
	<g>
		<path fill="#3C3C3B" d="M17.07,96.85c1.665-0.408,4.365-0.666,6.955-0.666c2.182,0,4.846,0.258,6.843,1.516
			c1.886,1.147,3.069,3.07,3.069,5.66c0,3.291-1.441,5.697-3.551,7.25c-2.071,1.554-4.992,2.293-8.137,2.293
			c-0.851,0-1.554-0.111-1.999-0.148l-1.664,8.545h-6.14L17.07,96.85z M21.176,107.65c0.445,0.074,0.961,0.184,1.887,0.184
			c2.773,0,4.55-1.849,4.55-3.883c0-2.146-1.554-2.774-3.293-2.774c-0.887,0-1.553,0.037-1.923,0.112L21.176,107.65z"/>
		<path fill="#3C3C3B" d="M34.008,121.299l1.997-10.43c0.518-2.924,0.74-6.253,0.926-7.77h5.438
			c-0.074,1.222-0.148,2.442-0.26,3.662h0.111c1.331-2.404,3.367-4.068,5.881-4.068c0.371,0,0.703,0,1.072,0.037l-1.257,6.141
			c-0.222,0-0.519-0.037-0.813-0.037c-3.736,0-4.994,2.959-5.623,6.251l-1.146,6.214H34.008z"/>
		<path fill="#3C3C3B" d="M68.111,110.166c0,7.064-4.809,11.539-11.207,11.539c-4.66,0-7.99-2.811-7.99-7.545
			c0-6.399,4.514-11.467,11.208-11.467C65.004,102.693,68.111,105.875,68.111,110.166z M55.46,114.049
			c0,1.776,0.814,2.886,2.33,2.886c2.59,0,3.773-4.106,3.773-6.694c0-1.518-0.629-2.775-2.256-2.775
			C56.57,107.465,55.46,111.829,55.46,114.049z"/>
		<path fill="#3C3C3B" d="M71.807,121.299l1.924-10.061l-4.919-14.87h6.769l1.221,5.586c0.407,2.034,0.665,3.254,0.925,4.661h0.073
			c0.813-1.48,1.517-2.849,2.479-4.661l3.07-5.586h7.546l-10.838,14.685l-1.923,10.246H71.807z"/>
		<path fill="#3C3C3B" d="M106.204,103.1l-2.256,11.985c-0.48,2.441-0.775,4.513-1.035,6.214h-5.548l0.258-2.773h-0.073
			c-1.961,2.367-4.105,3.18-6.214,3.18c-3.145,0-4.625-1.885-4.625-5.029c0-1.035,0.148-2.183,0.371-3.477l1.924-10.1h6.325
			l-1.813,9.581c-0.146,0.739-0.258,1.664-0.258,2.294c0,0.851,0.332,1.627,1.368,1.627c1.628,0,3.071-1.998,3.737-5.438
			l1.516-8.064H106.204z"/>
		<path fill="#3C3C3B" d="M107.792,121.299l2.256-11.984c0.482-2.441,0.777-4.513,1.035-6.215h5.551l-0.297,2.812h0.074
			c1.738-2.294,3.922-3.218,6.215-3.218c3.326,0,4.695,2.071,4.695,4.957c0,0.814-0.146,2.256-0.293,3.107l-2.035,10.541h-6.289
			l1.85-9.875c0.111-0.592,0.186-1.295,0.186-1.888c0-1.071-0.334-1.775-1.371-1.775c-1.551,0-3.105,1.998-3.809,5.771l-1.479,7.768
			H107.792z"/>
		<path fill="#3C3C3B" d="M130.907,123.111c1,0.555,3.367,0.925,4.736,0.925c2.479,0,4.326-1.035,4.918-4.143l0.223-0.999h-0.074
			c-1.332,1.48-2.738,2.182-4.734,2.182c-3.59,0-5.92-2.848-5.955-6.547c-0.037-5.918,4.141-11.836,12.428-11.836
			c2.775,0,5.031,0.406,7.139,1.258l-2.736,14.943c-0.592,3.145-1.59,6.289-3.885,8.064c-2.033,1.59-4.734,2.07-7.322,2.07
			c-2.516,0-4.848-0.443-6.141-1.108L130.907,123.111z M142.745,107.688c-0.334-0.111-0.926-0.186-1.443-0.186
			c-2.664,0-4.623,3.107-4.623,6.066c0,1.775,0.852,2.7,2.033,2.7c1.332,0,2.701-1.368,3.217-4.216L142.745,107.688z"/>
		<path fill="#3C3C3B" d="M162.495,121.299c0.037-1.035,0.109-2.107,0.146-3.145h-0.074c-1.553,2.701-3.809,3.551-5.732,3.551
			c-3.254,0-5.623-2.514-5.623-6.473c0-6.065,3.848-12.539,13.205-12.539c2.367,0,4.883,0.481,6.512,0.998l-1.961,9.544
			c-0.371,1.96-0.777,5.696-0.703,8.063H162.495z M163.825,107.539c-0.406-0.074-0.85-0.111-1.146-0.111
			c-2.922,0-4.883,3.959-4.883,6.621c0,1.701,0.738,2.59,1.814,2.59c1.146,0,2.66-1.146,3.477-5.438L163.825,107.539z"/>
		<path fill="#3C3C3B" d="M172.921,115.825c1.111,0.518,3.219,1.294,5.105,1.294c1.258,0,1.775-0.48,1.775-1.072
			c0-0.666-0.557-1.184-2.146-1.887c-2.07-0.999-4.07-2.516-4.07-4.92c0-3.994,3.553-6.547,8.584-6.547
			c2.33,0,4.068,0.444,5.068,0.962l-1.443,4.401c-0.852-0.369-2.182-0.776-3.848-0.776c-1.219,0-1.996,0.37-1.996,1.11
			c0,0.48,0.664,1.035,2.072,1.664c1.959,0.961,4.363,2.294,4.363,5.03c0,4.291-3.736,6.62-8.951,6.584
			c-2.441-0.073-4.809-0.628-5.992-1.517L172.921,115.825z"/>
	</g>
	<g>
		<path fill="#3C3C3B" d="M97.226,76.721h6.638l-0.402,2.067h-4.203l-0.521,2.656h3.951l-0.404,2.05h-3.933l-0.856,4.555h-2.421
			L97.226,76.721z"/>
		<path fill="#3C3C3B" d="M108.183,76.721l-1.244,6.521c-0.084,0.387-0.117,0.84-0.117,1.345c0,0.907,0.555,1.614,1.646,1.614
			c1.26,0,2.102-0.841,2.506-2.941l1.242-6.539h2.42l-1.227,6.438c-0.654,3.429-2.168,5.076-5.242,5.076
			c-2.338,0-3.766-1.193-3.766-3.613c0-0.488,0.066-1.043,0.168-1.58l1.193-6.32H108.183z"/>
		<path fill="#3C3C3B" d="M114.667,88.049l2.152-11.328h2.842l1.494,4.32c0.453,1.445,0.758,2.621,1.027,3.865h0.051
			c0.049-1.16,0.199-2.403,0.52-4.066l0.773-4.119h2.252l-2.133,11.328h-2.506l-1.58-4.521c-0.504-1.53-0.807-2.555-1.109-3.95
			l-0.051,0.018c-0.133,1.092-0.404,2.705-0.74,4.486l-0.738,3.967H114.667z"/>
		<path fill="#3C3C3B" d="M127.995,76.89c0.957-0.169,2.033-0.253,3.125-0.253c1.766,0,3.178,0.404,4.135,1.228
			c0.908,0.756,1.479,1.882,1.496,3.546c0,2.186-0.924,4.084-2.336,5.21c-1.311,1.042-2.975,1.496-5.43,1.496
			c-1.361,0-2.537-0.101-3.092-0.202L127.995,76.89z M128.667,86.1c0.285,0.05,0.639,0.066,1.059,0.066
			c1.311,0,2.471-0.471,3.211-1.327c0.773-0.874,1.176-2.05,1.176-3.411c0-1.782-0.99-2.841-2.992-2.841
			c-0.42,0-0.771,0.017-1.025,0.067L128.667,86.1z"/>
		<path fill="#3C3C3B" d="M140.179,85.107l-1.344,2.941h-2.572l5.512-11.328h3.109l1.328,11.328h-2.537l-0.236-2.941H140.179z
			 M143.339,83.26l-0.219-2.438c-0.051-0.621-0.117-1.529-0.168-2.219h-0.033c-0.285,0.689-0.605,1.562-0.908,2.219l-1.127,2.438
			H143.339z"/>
		<path fill="#3C3C3B" d="M155.456,87.729c-0.605,0.27-1.633,0.487-2.992,0.487c-2.99,0-5.008-1.814-5.008-4.807
			c0-2.537,1.141-4.521,2.857-5.664c1.174-0.823,2.57-1.21,4.166-1.21c1.229,0,2.152,0.286,2.473,0.487l-0.656,1.967
			c-0.336-0.168-1.074-0.37-2.053-0.37c-0.973,0-1.898,0.304-2.586,0.874c-0.959,0.773-1.564,2.068-1.564,3.647
			c0,1.798,1.01,3.008,3.01,3.008c0.791,0,1.578-0.134,2.15-0.37L155.456,87.729z"/>
		<path fill="#3C3C3B" d="M161.269,76.721l-2.152,11.328h-2.42l2.152-11.328H161.269z"/>
		<path fill="#3C3C3B" d="M172.63,81.26c0,2.066-0.725,4.066-2.018,5.344c-1.059,1.025-2.486,1.631-4.186,1.631
			c-2.941,0-4.588-2.085-4.588-4.723c0-2.051,0.756-4.084,2.084-5.361c1.059-1.01,2.504-1.614,4.135-1.614
			C171.05,76.536,172.63,78.553,172.63,81.26z M165.821,79.41c-0.906,0.891-1.41,2.656-1.41,4.018c0,1.596,0.723,2.789,2.369,2.789
			c0.707,0,1.377-0.318,1.898-0.823c0.893-0.892,1.379-2.757,1.379-4.067c0-1.412-0.504-2.773-2.285-2.773
			C167.015,78.553,166.343,78.873,165.821,79.41z M171.335,73.947l-2.217,2.118h-2.053l1.58-2.118H171.335z"/>
		<path fill="#3C3C3B" d="M173.198,88.049l2.152-11.328h2.84l1.496,4.32c0.453,1.445,0.756,2.621,1.025,3.865h0.051
			c0.051-1.16,0.201-2.403,0.521-4.066l0.771-4.119h2.252l-2.133,11.328h-2.506l-1.58-4.521c-0.502-1.53-0.807-2.555-1.107-3.95
			l-0.051,0.018c-0.135,1.092-0.404,2.705-0.742,4.486l-0.738,3.967H173.198z"/>
	</g>
</g>
<g>
</g>
<g>
</g>
<g>
</g>
<g>
</g>
<g>
</g>
<g>
</g>
</svg>
