<?xml version="1.0" encoding="utf-8"?>
<!-- Generator: Adobe Illustrator 19.1.0, SVG Export Plug-In . SVG Version: 6.00 Build 0)  -->
<svg version="1.1" id="Capa_1" xmlns="http://www.w3.org/2000/svg" xmlns:xlink="http://www.w3.org/1999/xlink" x="0px" y="0px"
	 viewBox="-314 563.3 212.2 66.3" style="enable-background:new -314 563.3 212.2 66.3;" xml:space="preserve">
<style type="text/css">
	.st0{fill:#555555;}
	.st1{fill:#999999;}
	.st2{fill:#FFFFFF;}
</style>
<g>
	<path class="st0" d="M-287,617.1c-7.2,0-13.1-5.9-13.1-13.1s5.9-13.1,13.1-13.1s13.1,5.9,13.1,13.1S-279.8,617.1-287,617.1z
		 M-287,593.9c-5.6,0-10.1,4.5-10.1,10.1s4.5,10.1,10.1,10.1s10.1-4.5,10.1-10.1S-281.4,593.9-287,593.9z"/>
	<path class="st0" d="M-287,589.4c-7.2,0-13.1-5.9-13.1-13.1c0-7.2,5.9-13.1,13.1-13.1s13.1,5.9,13.1,13.1
		C-273.9,583.5-279.8,589.4-287,589.4z M-287,566.3c-5.6,0-10.1,4.5-10.1,10.1s4.5,10.1,10.1,10.1s10.1-4.5,10.1-10.1
		C-276.9,570.8-281.4,566.3-287,566.3z"/>
	<path class="st0" d="M-273.2,603.3c-7.2,0-13.1-5.9-13.1-13.1s5.9-13.1,13.1-13.1s13.1,5.9,13.1,13.1S-266,603.3-273.2,603.3z
		 M-273.2,580.1c-5.6,0-10.1,4.5-10.1,10.1s4.5,10.1,10.1,10.1s10.1-4.5,10.1-10.1S-267.6,580.1-273.2,580.1z"/>
	<path class="st0" d="M-300.9,603.3c-7.2,0-13.1-5.9-13.1-13.1s5.9-13.1,13.1-13.1s13.1,5.9,13.1,13.1S-293.7,603.3-300.9,603.3z
		 M-300.9,580.1c-5.6,0-10.1,4.5-10.1,10.1s4.5,10.1,10.1,10.1s10.1-4.5,10.1-10.1S-295.3,580.1-300.9,580.1z"/>
	<circle class="st1" cx="-287" cy="590.3" r="5.6"/>
	<g>
		<path d="M-242.2,566.6l-2.5,1c-0.4-1.1-1-1.7-2-1.7c-0.4,0-0.8,0.1-1.1,0.4c-0.3,0.3-0.4,0.6-0.4,0.9c0,0.4,0.2,0.7,0.5,0.9
			s1,0.5,1.9,0.9c0.9,0.3,1.6,0.7,2.1,1s0.9,0.8,1.2,1.3c0.3,0.6,0.5,1.2,0.5,1.9c0,1.3-0.4,2.4-1.3,3.2s-2.1,1.2-3.6,1.2
			c-2.5,0-4.1-1.3-4.8-3.8l2.7-0.8c0.3,1.4,1.1,2.1,2.2,2.1c0.5,0,1-0.1,1.3-0.4c0.3-0.3,0.5-0.6,0.5-1.1c0-0.3-0.1-0.6-0.3-0.9
			c-0.2-0.3-0.8-0.6-1.6-0.9c-1.1-0.4-1.9-0.7-2.4-1s-1-0.8-1.3-1.3c-0.3-0.6-0.5-1.2-0.5-2c0-1.2,0.4-2.3,1.2-3.1s1.9-1.2,3.2-1.2
			C-244.3,563.3-242.8,564.4-242.2,566.6z"/>
		<path d="M-240.2,563.5h3.4l3.6,8.6v-8.6h2.4v13.9h-2.7l-4.4-10v10.1h-2.4L-240.2,563.5L-240.2,563.5z"/>
		<path d="M-229.2,563.5h3.3c1.4,0,2.6,0.2,3.5,0.6c0.9,0.4,1.6,1.1,2.1,2.1s0.8,2.4,0.8,4.2c0,1.2-0.2,2.4-0.5,3.3
			c-0.3,0.9-0.8,1.7-1.3,2.3s-1.1,0.9-1.8,1.1c-0.7,0.2-1.5,0.3-2.5,0.3h-3.7L-229.2,563.5L-229.2,563.5z M-226.2,565.9v9.1h0.5
			c0.7,0,1.3-0.1,1.6-0.4c0.4-0.3,0.7-0.7,0.9-1.4s0.3-1.7,0.3-2.9s-0.1-2.1-0.4-2.7c-0.3-0.6-0.6-1.1-1-1.3s-0.9-0.3-1.6-0.3
			L-226.2,565.9L-226.2,565.9z"/>
		<path d="M-217.7,563.5h4.7c1.1,0,2,0.1,2.5,0.3c0.6,0.2,1,0.6,1.4,1.2c0.4,0.6,0.6,1.3,0.6,2.2c0,1.6-0.7,2.6-2,3
			c1.6,0.6,2.4,1.7,2.4,3.4c0,0.9-0.2,1.7-0.6,2.3c-0.4,0.6-1,1-1.6,1.2s-1.5,0.3-2.7,0.3h-4.7
			C-217.7,577.4-217.7,563.5-217.7,563.5z M-214.7,569.1h1c1,0,1.6-0.2,1.9-0.5c0.3-0.4,0.4-0.8,0.4-1.2s-0.1-0.8-0.4-1.1
			c-0.3-0.3-0.8-0.5-1.6-0.5h-1.2L-214.7,569.1L-214.7,569.1z M-214.7,575.1h1.5c1.4,0,2.1-0.6,2.1-1.8c0-0.7-0.2-1.1-0.5-1.4
			c-0.3-0.3-0.9-0.4-1.6-0.4h-1.5V575.1z"/>
		<path d="M-242.4,593l-2,0.7c-0.2-0.7-0.5-1.3-0.9-1.6s-0.9-0.5-1.5-0.5s-1.1,0.2-1.4,0.5c-0.3,0.4-0.5,0.8-0.5,1.2
			c0,0.5,0.2,0.9,0.6,1.2s1.1,0.7,2.2,1.1c0.9,0.4,1.7,0.7,2.2,1s0.9,0.8,1.2,1.3s0.5,1.2,0.5,1.9c0,1.2-0.4,2.2-1.2,3
			s-2,1.2-3.5,1.2c-2.6,0-4.2-1.3-4.8-3.9l2.1-0.6c0.4,1.7,1.3,2.6,2.8,2.6c0.7,0,1.3-0.2,1.7-0.6c0.4-0.4,0.6-0.9,0.6-1.4
			c0-0.4-0.1-0.8-0.4-1.2c-0.3-0.4-0.9-0.7-2-1.1c-1.1-0.4-1.9-0.8-2.4-1.1s-0.9-0.7-1.3-1.3c-0.3-0.6-0.5-1.2-0.5-1.9
			c0-1.1,0.4-2,1.2-2.8s1.8-1.1,3.1-1.1C-244.5,589.6-243.1,590.8-242.4,593z"/>
		<path d="M-238,592.1h-2.2v-2.2h2.2V592.1z M-240.1,593.5h2.1v10.3h-2.1V593.5z"/>
		<path d="M-229.3,595.9l-1.7,0.4c-0.3-1-0.9-1.5-1.7-1.5c-0.4,0-0.7,0.1-1,0.4c-0.2,0.2-0.4,0.5-0.4,0.9s0.1,0.7,0.4,0.9
			s0.8,0.4,1.7,0.7c1.1,0.4,1.9,0.8,2.3,1.2c0.5,0.5,0.7,1.1,0.7,1.9c0,0.9-0.3,1.7-1,2.3s-1.6,0.9-2.7,0.9c-2.2,0-3.4-1-3.7-3
			l1.8-0.3c0.2,1.2,0.9,1.8,2,1.8c0.5,0,1-0.1,1.2-0.4c0.2-0.3,0.4-0.6,0.4-1c0-0.3-0.1-0.5-0.3-0.8s-0.7-0.5-1.5-0.8
			s-1.4-0.5-1.8-0.7c-0.4-0.2-0.7-0.5-1-1c-0.3-0.4-0.4-0.9-0.4-1.4c0-0.9,0.3-1.6,1-2.2c0.6-0.6,1.5-0.9,2.5-0.9
			C-230.9,593.3-229.8,594.1-229.3,595.9z"/>
		<path d="M-226.8,590.8l1.9-0.2v2.9h2v1.7h-2v4.5c0,0.8,0,1.3,0.1,1.6s0.2,0.5,0.4,0.6c0.2,0.2,0.5,0.2,1,0.2c0.3,0,0.5,0,0.9-0.1
			v1.7c-0.6,0.1-1.1,0.2-1.6,0.2c-0.8,0-1.4-0.2-1.8-0.5c-0.4-0.3-0.7-0.7-0.8-1.3s-0.3-1.2-0.3-2.2v-4.7h-1.3v-1.7h1.4
			L-226.8,590.8z"/>
		<path d="M-213.9,598.9h-5.8c0,1.4,0.2,2.3,0.6,2.8s0.8,0.7,1.4,0.7c0.9,0,1.5-0.6,1.8-1.9l1.9,0.3c-0.5,2.2-1.8,3.3-3.8,3.3
			c-1.2,0-2.2-0.4-3-1.3c-0.7-0.9-1.1-2.2-1.1-3.9c0-1.8,0.4-3.1,1.1-4.1s1.7-1.4,3-1.4c0.9,0,1.6,0.2,2.2,0.7s1,1.1,1.3,1.9
			S-213.9,597.8-213.9,598.9z M-216.1,597.5c0-1.8-0.6-2.7-1.8-2.7c-1.1,0-1.7,0.9-1.8,2.7H-216.1z"/>
		<path d="M-213.2,593.5h2v1.5c0.5-1.2,1.3-1.8,2.5-1.8c1.3,0,2.1,0.6,2.3,1.9c0.5-1.3,1.3-1.9,2.6-1.9c0.6,0,1.1,0.1,1.6,0.4
			c0.4,0.3,0.7,0.6,0.9,1.1s0.2,1.3,0.2,2.5v6.5h-2.1v-6.3c0-1-0.1-1.6-0.3-2c-0.2-0.3-0.5-0.5-1-0.5c-1.1,0-1.6,0.9-1.6,2.8v6h-2.1
			v-6.3c0-0.9,0-1.5-0.1-1.7c-0.1-0.3-0.2-0.5-0.4-0.6s-0.4-0.2-0.7-0.2c-0.6,0-1,0.2-1.3,0.7s-0.4,1.2-0.4,2.2v6h-2.1L-213.2,593.5
			L-213.2,593.5z"/>
		<path d="M-196.7,596.4l-2-0.3c0.1-0.9,0.6-1.6,1.3-2.1s1.6-0.8,2.6-0.8c0.9,0,1.7,0.2,2.2,0.6c0.6,0.4,0.9,0.8,1,1.3
			s0.2,1.3,0.2,2.3v3.5c0,1.4,0.1,2.4,0.2,2.8h-2c-0.1-0.4-0.1-0.9-0.1-1.7c-0.6,1.3-1.6,2-2.9,2c-0.9,0-1.6-0.3-2.1-0.8
			s-0.8-1.3-0.8-2.2c0-1.1,0.4-2,1.2-2.7s2.1-1,4-1c0.1,0,0.2,0,0.4,0V597c0-0.7-0.1-1.3-0.3-1.7s-0.6-0.6-1.2-0.6
			C-196,594.8-196.5,595.3-196.7,596.4z M-193.5,598.8c-0.3,0-0.5,0-0.6,0c-1.8,0-2.8,0.7-2.8,2.2c0,1.1,0.5,1.6,1.4,1.6
			c0.5,0,1-0.3,1.4-0.9c0.4-0.6,0.6-1.4,0.6-2.4L-193.5,598.8L-193.5,598.8z"/>
		<path d="M-185.1,589.9h2.7l4.6,10v-10h1.9v13.9h-2.1l-5.1-11.1v11.1h-1.9L-185.1,589.9L-185.1,589.9z"/>
		<path d="M-171.5,596.4l-2-0.3c0.1-0.9,0.6-1.6,1.3-2.1s1.6-0.8,2.6-0.8c0.9,0,1.7,0.2,2.2,0.6c0.6,0.4,0.9,0.8,1,1.3
			s0.2,1.3,0.2,2.3v3.5c0,1.4,0.1,2.4,0.2,2.8h-2c-0.1-0.4-0.1-0.9-0.1-1.7c-0.6,1.3-1.6,2-2.9,2c-0.9,0-1.6-0.3-2.1-0.8
			s-0.8-1.3-0.8-2.2c0-1.1,0.4-2,1.2-2.7s2.1-1,4-1c0.1,0,0.2,0,0.4,0V597c0-0.7-0.1-1.3-0.3-1.7s-0.6-0.6-1.2-0.6
			C-170.8,594.8-171.3,595.3-171.5,596.4z M-168.3,598.8c-0.3,0-0.5,0-0.6,0c-1.8,0-2.8,0.7-2.8,2.2c0,1.1,0.5,1.6,1.4,1.6
			c0.5,0,1-0.3,1.4-0.9c0.4-0.6,0.6-1.4,0.6-2.4L-168.3,598.8L-168.3,598.8z"/>
		<path d="M-157.7,596.9l-2,0.2c-0.1-0.9-0.3-1.5-0.5-1.8s-0.6-0.5-1-0.5c-0.6,0-1.1,0.3-1.4,0.9c-0.3,0.6-0.4,1.6-0.4,3.1
			c0,2.3,0.6,3.4,1.8,3.4c0.9,0,1.4-0.7,1.6-2.2l2,0.2c-0.3,2.5-1.5,3.8-3.8,3.8c-1.3,0-2.3-0.5-2.9-1.4c-0.6-1-1-2.3-1-3.9
			c0-1.8,0.3-3.1,1-4s1.7-1.4,3-1.4C-159.2,593.3-158,594.5-157.7,596.9z"/>
		<path d="M-153.1,592.1h-2.2v-2.2h2.2V592.1z M-155.3,593.5h2.1v10.3h-2.1V593.5z"/>
		<path d="M-144.1,598.5c0,3.7-1.4,5.5-4.1,5.5c-1.2,0-2.2-0.4-2.9-1.3c-0.7-0.9-1.1-2.2-1.1-4.1c0-3.6,1.4-5.4,4.1-5.4
			c1.2,0,2.2,0.4,2.9,1.3C-144.5,595.4-144.1,596.8-144.1,598.5z M-146.4,598.6c0-1.4-0.2-2.4-0.5-3s-0.8-0.8-1.3-0.8
			c-1.2,0-1.8,1.3-1.8,3.8c0,1.3,0.1,2.2,0.4,2.9c0.3,0.6,0.7,0.9,1.4,0.9c0.6,0,1.1-0.3,1.4-0.9
			C-146.5,600.8-146.4,599.9-146.4,598.6z"/>
		<path d="M-143.1,593.5h2v1.6c0.5-1.2,1.3-1.8,2.5-1.8c0.7,0,1.3,0.2,1.7,0.5s0.7,0.7,0.8,1.2s0.2,1.2,0.2,2.2v6.6h-2.1v-6.5
			c0-0.9-0.1-1.5-0.2-1.8c-0.2-0.3-0.5-0.5-1-0.5s-0.9,0.2-1.2,0.6c-0.3,0.4-0.4,1.2-0.4,2.4v5.8h-2.1v-10.3H-143.1z"/>
		<path d="M-131.6,596.4l-2-0.3c0.1-0.9,0.6-1.6,1.3-2.1c0.7-0.5,1.6-0.8,2.6-0.8c0.9,0,1.7,0.2,2.2,0.6c0.6,0.4,0.9,0.8,1,1.3
			s0.2,1.3,0.2,2.3v3.5c0,1.4,0.1,2.4,0.2,2.8h-2c-0.1-0.4-0.1-0.9-0.1-1.7c-0.6,1.3-1.6,2-2.9,2c-0.9,0-1.6-0.3-2.1-0.8
			s-0.8-1.3-0.8-2.2c0-1.1,0.4-2,1.2-2.7c0.8-0.7,2.1-1,4-1c0.1,0,0.2,0,0.4,0V597c0-0.7-0.1-1.3-0.3-1.7c-0.2-0.4-0.6-0.6-1.2-0.6
			C-130.9,594.8-131.4,595.3-131.6,596.4z M-128.4,598.8c-0.3,0-0.5,0-0.6,0c-1.8,0-2.8,0.7-2.8,2.2c0,1.1,0.5,1.6,1.4,1.6
			c0.5,0,1-0.3,1.4-0.9c0.4-0.6,0.6-1.4,0.6-2.4V598.8L-128.4,598.8z"/>
		<path d="M-124.9,589.9h2.1v13.9h-2.1V589.9z"/>
		<path d="M-245.5,611.9h2.1v13.9h-2v-1.6c-0.5,1.2-1.3,1.7-2.5,1.7s-2-0.5-2.6-1.5s-0.9-2.2-0.9-3.8c0-1.7,0.3-3,1-3.9
			c0.6-0.9,1.5-1.4,2.6-1.4s1.9,0.5,2.3,1.4L-245.5,611.9L-245.5,611.9z M-245.5,619.8c0-1.1-0.2-1.8-0.6-2.2
			c-0.4-0.4-0.8-0.6-1.2-0.6c-1.2,0-1.8,1.2-1.8,3.6c0,2.6,0.6,3.9,1.8,3.9c0.5,0,0.9-0.2,1.3-0.6c0.4-0.4,0.6-1.2,0.6-2.2v-1.9
			H-245.5z"/>
		<path d="M-233.4,620.9h-5.8c0,1.4,0.2,2.3,0.6,2.8s0.8,0.7,1.4,0.7c0.9,0,1.5-0.6,1.8-1.9l1.9,0.3c-0.5,2.1-1.8,3.2-3.8,3.2
			c-1.2,0-2.2-0.4-3-1.3c-0.7-0.9-1.1-2.2-1.1-3.9c0-1.8,0.4-3.1,1.1-4.1s1.7-1.4,3-1.4c0.9,0,1.6,0.2,2.2,0.7s1,1.1,1.3,1.9
			S-233.4,619.8-233.4,620.9z M-235.6,619.5c0-1.8-0.6-2.7-1.8-2.7c-1.1,0-1.7,0.9-1.8,2.7H-235.6z"/>
		<path d="M-226.7,611.9h3.1c1.5,0,2.7,0.3,3.6,0.8s1.6,1.3,2.1,2.4c0.5,1.1,0.7,2.2,0.7,3.5c0,1.4-0.2,2.6-0.6,3.6
			c-0.4,1.1-1.1,1.9-1.9,2.6c-0.8,0.7-2.1,1-3.7,1h-3.3C-226.7,625.8-226.7,611.9-226.7,611.9z M-224.4,613.8V624h1
			c1.3,0,2.3-0.5,2.9-1.4s0.9-2.2,0.9-3.7c0-3.4-1.3-5.1-3.8-5.1H-224.4z"/>
		<path d="M-214.1,618.4l-2-0.3c0.1-0.9,0.6-1.6,1.3-2.1s1.6-0.8,2.6-0.8c0.9,0,1.7,0.2,2.2,0.6c0.6,0.4,0.9,0.8,1,1.3
			s0.2,1.3,0.2,2.3v3.5c0,1.4,0.1,2.4,0.2,2.8h-2c-0.1-0.4-0.1-0.9-0.1-1.7c-0.6,1.3-1.6,2-2.9,2c-0.9,0-1.6-0.3-2.1-0.8
			s-0.8-1.3-0.8-2.2c0-1.1,0.4-2,1.2-2.7s2.1-1,4-1c0.1,0,0.2,0,0.4,0V619c0-0.7-0.1-1.3-0.3-1.7s-0.6-0.6-1.2-0.6
			C-213.4,616.8-213.9,617.3-214.1,618.4z M-210.9,620.8c-0.3,0-0.5,0-0.6,0c-1.8,0-2.8,0.7-2.8,2.2c0,1.1,0.5,1.6,1.4,1.6
			c0.5,0,1-0.3,1.4-0.9c0.4-0.6,0.6-1.4,0.6-2.4L-210.9,620.8L-210.9,620.8z"/>
		<path d="M-206.1,612.8l1.9-0.2v2.9h2v1.7h-2v4.5c0,0.8,0,1.3,0.1,1.6s0.2,0.5,0.4,0.6c0.2,0.2,0.5,0.2,1,0.2c0.3,0,0.5,0,0.9-0.1
			v1.7c-0.6,0.1-1.1,0.2-1.6,0.2c-0.8,0-1.4-0.2-1.8-0.5c-0.4-0.3-0.7-0.7-0.8-1.3s-0.2-1.3-0.2-2.4V617h-1.3v-1.7h1.4L-206.1,612.8
			L-206.1,612.8z"/>
		<path d="M-193.1,620.5c0,3.7-1.4,5.5-4.1,5.5c-1.2,0-2.2-0.4-2.9-1.3c-0.7-0.9-1.1-2.2-1.1-4.1c0-3.6,1.4-5.4,4.1-5.4
			c1.2,0,2.2,0.4,2.9,1.3C-193.4,617.4-193.1,618.8-193.1,620.5z M-195.3,620.6c0-1.4-0.2-2.4-0.5-3s-0.8-0.8-1.3-0.8
			c-1.2,0-1.8,1.3-1.8,3.8c0,1.3,0.1,2.2,0.4,2.9c0.3,0.6,0.7,0.9,1.4,0.9c0.6,0,1.1-0.3,1.4-0.9
			C-195.5,622.8-195.3,621.9-195.3,620.6z"/>
		<path d="M-184.9,617.9l-1.7,0.4c-0.3-1-0.9-1.5-1.7-1.5c-0.4,0-0.7,0.1-1,0.4c-0.2,0.2-0.4,0.5-0.4,0.9s0.1,0.7,0.4,0.9
			s0.8,0.4,1.7,0.7c1.1,0.4,1.9,0.8,2.3,1.2c0.5,0.5,0.7,1.1,0.7,1.9c0,0.9-0.3,1.7-1,2.3s-1.6,0.9-2.7,0.9c-2.2,0-3.4-1-3.7-3
			l1.8-0.3c0.2,1.2,0.9,1.8,2,1.8c0.5,0,1-0.1,1.2-0.4c0.2-0.3,0.4-0.6,0.4-1c0-0.3-0.1-0.5-0.3-0.8s-0.7-0.5-1.5-0.8
			s-1.4-0.5-1.8-0.7c-0.4-0.2-0.7-0.5-1-1c-0.3-0.4-0.4-0.9-0.4-1.4c0-0.9,0.3-1.6,1-2.2c0.6-0.6,1.5-0.9,2.5-0.9
			C-186.5,615.3-185.4,616.1-184.9,617.9z"/>
		<path d="M-178.9,611.9h4.2c1.1,0,1.9,0.1,2.4,0.3s1,0.5,1.4,1.1s0.6,1.3,0.6,2.1c0,1.5-0.7,2.6-2.1,3c1.7,0.5,2.5,1.7,2.5,3.5
			c0,1-0.3,1.9-1,2.7s-1.9,1.1-3.8,1.1h-4.3v-13.8L-178.9,611.9L-178.9,611.9z M-176.7,617.6h1.5c1,0,1.7-0.2,2-0.6s0.5-0.9,0.5-1.5
			c0-0.7-0.2-1.2-0.6-1.5c-0.4-0.3-1-0.5-1.7-0.5h-1.7V617.6z M-176.7,623.9h1.9c1.7,0,2.5-0.7,2.5-2.2c0-0.6-0.2-1.1-0.5-1.6
			c-0.4-0.5-1.1-0.7-2.2-0.7h-1.7V623.9z"/>
		<path d="M-165.5,614.1h-2.2v-2.2h2.2V614.1z M-167.6,615.5h2.1v10.3h-2.1V615.5z"/>
		<path d="M-155.4,620.5c0,3.7-1.4,5.5-4.1,5.5c-1.2,0-2.2-0.4-2.9-1.3c-0.7-0.9-1.1-2.2-1.1-4.1c0-3.6,1.4-5.4,4.1-5.4
			c1.2,0,2.2,0.4,2.9,1.3S-155.4,618.8-155.4,620.5z M-157.7,620.6c0-1.4-0.2-2.4-0.5-3s-0.8-0.8-1.3-0.8c-1.2,0-1.8,1.3-1.8,3.8
			c0,1.3,0.1,2.2,0.4,2.9c0.3,0.6,0.7,0.9,1.4,0.9c0.6,0,1.1-0.3,1.4-0.9C-157.8,622.8-157.7,621.9-157.7,620.6z"/>
		<path d="M-153.4,611.9h2.1v13.9h-2.1V611.9z"/>
		<path d="M-142.2,620.5c0,3.7-1.4,5.5-4.1,5.5c-1.2,0-2.2-0.4-2.9-1.3c-0.7-0.9-1.1-2.2-1.1-4.1c0-3.6,1.4-5.4,4.1-5.4
			c1.2,0,2.2,0.4,2.9,1.3S-142.2,618.8-142.2,620.5z M-144.5,620.6c0-1.4-0.2-2.4-0.5-3s-0.8-0.8-1.3-0.8c-1.2,0-1.8,1.3-1.8,3.8
			c0,1.3,0.1,2.2,0.4,2.9c0.3,0.6,0.7,0.9,1.4,0.9c0.6,0,1.1-0.3,1.4-0.9C-144.6,622.8-144.5,621.9-144.5,620.6z M-147.9,613.5
			l3.3-2.9l1.1,1.4l-3.6,2.3L-147.9,613.5z"/>
		<path d="M-132.2,613.8v1.6c-0.2,0-0.4-0.1-0.5-0.1c-0.6,0-1,0.4-1.1,1.1c0.5,0.7,0.8,1.4,0.8,2.2c0,0.9-0.3,1.7-1,2.4
			c-0.6,0.6-1.5,1-2.6,1c-0.4,0-0.8-0.1-1.3-0.2c-0.5,0.2-0.8,0.5-0.8,0.9c0,0.3,0.1,0.6,0.4,0.7c0.3,0.1,1,0.2,2.2,0.2
			c1,0.1,1.8,0.1,2.3,0.3c0.5,0.1,0.9,0.4,1.2,0.8c0.3,0.4,0.5,1,0.5,1.6c0,1-0.4,1.8-1.2,2.4c-0.8,0.6-2,0.8-3.5,0.8
			c-1.4,0-2.5-0.2-3.2-0.7s-1-1.1-1-1.9c0-1,0.5-1.7,1.5-2c-0.7-0.4-1.1-1-1.1-1.7c0-0.9,0.5-1.6,1.5-2.1c-0.9-0.6-1.3-1.5-1.3-2.6
			c0-1,0.3-1.8,1-2.4c0.7-0.6,1.5-0.9,2.6-0.9c0.7,0,1.3,0.1,1.9,0.4c0.1-0.7,0.3-1.2,0.6-1.5s0.7-0.4,1.3-0.4
			C-132.7,613.8-132.5,613.8-132.2,613.8z M-138.1,625.3c-0.6,0.3-0.9,0.7-0.9,1.3c0,0.5,0.2,0.8,0.6,1.1c0.4,0.2,1,0.3,1.9,0.3
			c1.6,0,2.4-0.5,2.4-1.4c0-0.5-0.2-0.8-0.5-1c-0.3-0.2-0.9-0.3-1.8-0.3C-137.1,625.4-137.7,625.4-138.1,625.3z M-135.2,618.6
			c0-1.3-0.5-2-1.4-2c-1,0-1.5,0.7-1.5,2s0.5,2,1.5,2C-135.7,620.6-135.2,620-135.2,618.6z"/>
		<path d="M-128.8,614.1h-2.2v-2.2h2.2V614.1z M-131,615.5h2.1v10.3h-2.1V615.5z"/>
		<path d="M-119.2,618.9l-2,0.2c-0.1-0.9-0.3-1.5-0.5-1.8s-0.6-0.5-1-0.5c-0.6,0-1.1,0.3-1.4,0.9c-0.3,0.6-0.4,1.6-0.4,3.1
			c0,2.3,0.6,3.4,1.8,3.4c0.9,0,1.4-0.7,1.6-2.2l2,0.2c-0.3,2.5-1.5,3.8-3.8,3.8c-1.3,0-2.3-0.5-2.9-1.4c-0.6-1-1-2.3-1-3.9
			c0-1.8,0.3-3.1,1-4s1.7-1.4,3-1.4C-120.7,615.3-119.5,616.5-119.2,618.9z"/>
		<path d="M-110.3,620.5c0,3.7-1.4,5.5-4.1,5.5c-1.2,0-2.2-0.4-2.9-1.3c-0.7-0.9-1.1-2.2-1.1-4.1c0-3.6,1.4-5.4,4.1-5.4
			c1.2,0,2.2,0.4,2.9,1.3C-110.6,617.4-110.3,618.8-110.3,620.5z M-112.5,620.6c0-1.4-0.2-2.4-0.5-3s-0.8-0.8-1.3-0.8
			c-1.2,0-1.8,1.3-1.8,3.8c0,1.3,0.1,2.2,0.4,2.9c0.3,0.6,0.7,0.9,1.4,0.9c0.6,0,1.1-0.3,1.4-0.9
			C-112.7,622.8-112.5,621.9-112.5,620.6z"/>
		<path d="M-102.1,617.9l-1.7,0.4c-0.3-1-0.9-1.5-1.7-1.5c-0.4,0-0.7,0.1-1,0.4c-0.2,0.2-0.4,0.5-0.4,0.9s0.1,0.7,0.4,0.9
			c0.2,0.2,0.8,0.4,1.7,0.7c1.1,0.4,1.9,0.8,2.3,1.2c0.5,0.5,0.7,1.1,0.7,1.9c0,0.9-0.3,1.7-1,2.3s-1.6,0.9-2.7,0.9
			c-2.2,0-3.4-1-3.7-3l1.8-0.3c0.2,1.2,0.9,1.8,2,1.8c0.5,0,1-0.1,1.2-0.4c0.3-0.3,0.4-0.6,0.4-1c0-0.3-0.1-0.5-0.3-0.8
			c-0.2-0.3-0.7-0.5-1.5-0.8s-1.4-0.5-1.8-0.7s-0.7-0.5-1-1c-0.3-0.4-0.4-0.9-0.4-1.4c0-0.9,0.3-1.6,1-2.2s1.5-0.9,2.5-0.9
			C-103.7,615.3-102.6,616.1-102.1,617.9z"/>
	</g>
	<path class="st2" d="M-287,585.8c2.5,0,4.5,2,4.5,4.5c-3.1-3.1-5.8-3.1-8.9,0C-291.5,587.8-289.5,585.8-287,585.8z"/>
</g>
</svg>
