<?xml version="1.0" encoding="utf-8"?>
<!-- Generator: Adobe Illustrator 16.0.0, SVG Export Plug-In . SVG Version: 6.00 Build 0)  -->
<!DOCTYPE svg PUBLIC "-//W3C//DTD SVG 1.1//EN" "http://www.w3.org/Graphics/SVG/1.1/DTD/svg11.dtd">
<svg version="1.1" id="Layer_1" xmlns="http://www.w3.org/2000/svg" xmlns:xlink="http://www.w3.org/1999/xlink" x="0px" y="0px"
	 width="258.75px" height="90.613px" viewBox="0 0 258.75 90.613" enable-background="new 0 0 258.75 90.613" xml:space="preserve">
<g>
	
		<linearGradient id="SVGID_1_" gradientUnits="userSpaceOnUse" x1="194.1973" y1="125.0002" x2="211.7875" y2="73.4414" gradientTransform="matrix(1.0656 0.1473 0.1463 -1.058 -37.88 109.4169)">
		<stop  offset="0.1335" style="stop-color:#298640"/>
		<stop  offset="0.2197" style="stop-color:#448E3F"/>
		<stop  offset="0.3912" style="stop-color:#7DA536"/>
		<stop  offset="0.6297" style="stop-color:#CACC05"/>
		<stop  offset="0.8062" style="stop-color:#FFED00"/>
	</linearGradient>
	<path fill="url(#SVGID_1_)" d="M199.325,2.216c24.041-0.114,38.993,13.09,48.044,31.152c-7.879-5.517-32.889-20.233-39.977-12.355
		c-3.216,3.572-6.354,7.058-9.144,8.828c-5.347-4.672-9.791-4.905-12.813-1.458c-2.586,2.947-2.436,3.745-6.832,8.061
		c-0.193,0.189-0.982,1.342-1.188,1.166c-2.767-2.355-6.961-7.164-12.218-6.255c-5.325,0.921-11.508,10.904-18.447,16.546
		c-3.604,2.928-3.857,4.283-4.723,5.289C146.082,26.019,175.279,2.331,199.325,2.216L199.325,2.216z"/>
	<path fill="#3C3C3B" d="M156.619,31.682c0.004-0.041-0.008-0.055-0.03-0.025L156.619,31.682L156.619,31.682z"/>
	<path fill="#FFFFFF" d="M204.35,4.17c11.781,0.516,22.664,4.267,31.817,10.346c9.11,6.058,16.511,14.424,21.37,24.211
		c0.633,0.027,1.266,0.059,1.209,1.312c-0.053,1.167-0.604,1.227-1.189,1.206c-0.338,0.188-0.758,0.215-1.102-0.037
		c-5.229-3.85-17.457-11.711-28.031-15.382c-5.585-1.939-10.646-2.708-13.748-1.025c-0.029,0.029-0.064,0.055-0.091,0.085
		c-3.341,3.229-6.614,6.391-9.708,8.44c-0.292,0.212-0.585,0.413-0.872,0.605c0.259,0.28,0.517,0.569,0.781,0.874
		c0.414,0.476,0.825,0.952-0.132,1.771c-0.958,0.818-1.375,0.343-1.789-0.134c-0.492-0.567-0.969-1.085-1.438-1.553
		c-0.181-0.071-0.361-0.231-0.535-0.524c-0.026-0.027-0.055-0.053-0.082-0.08c-2.481-2.155-4.586-3.026-6.457-3.018
		c-1.291,0.004-2.506,0.438-3.687,1.162c-0.239,0.173-0.476,0.361-0.705,0.561c-1.479,1.265-2.937,2.99-4.437,4.775
		c-1.447,1.72-2.939,3.492-4.606,5.038c1.513,1.282,3.101,2.524,4.795,3.566c0.538,0.33,1.078,0.662,0.408,1.729
		c-0.67,1.068-1.206,0.737-1.746,0.405c-1.983-1.221-3.805-2.681-5.528-4.164c-0.281,0.025-0.603-0.121-0.996-0.605
		c-0.156-0.19-0.263-0.362-0.33-0.515c-0.016-0.014-0.03-0.029-0.049-0.042c-0.064-0.059-0.129-0.117-0.195-0.178
		c-0.654-0.579-0.551-0.486-0.25-0.221c-2.035-1.824-4.651-4.182-7.332-5.381c-1.189-0.533-2.416-0.834-3.631-0.731
		c-0.955,0.166-1.916,0.604-2.899,1.383c0,0-17.244,13.329-20.168,16.073c-0.071,0.272-0.229,0.497-0.614,0.595
		c-0.061,0.056-0.115,0.112-0.171,0.169c-0.707,0.713-2.048,0.007-1.854-0.97c2.978-14.817,11.291-27.675,22.789-36.612
		C174.477,8.497,188.9,3.496,204.35,4.17L204.35,4.17z M143.393,50.597c5.719-5.027,14.938-11.83,17.713-14.062l-0.021-0.022
		c6.406-5.632,11.369-1.213,17.255,4.027c0.221,0.198,0.449,0.397,0.674,0.601c1.084-0.986,2.114-2.112,3.116-3.268
		c0.163-0.192,0.325-0.387,0.485-0.58c0.518-0.612,1.031-1.22,1.523-1.791c1.375-1.628,2.729-3.176,4.174-4.414
		c3.836-3.28,8.013-4.334,13.813,0.965c3.224-1.746,6.914-5.313,10.694-8.968c7.371-7.125,29.684,5.436,40.717,12.832
		c-4.615-7.825-10.984-14.544-18.594-19.599c-8.834-5.87-19.332-9.491-30.695-9.987c-14.902-0.652-28.818,4.176-39.752,12.677
		C154.389,26.867,146.828,37.877,143.393,50.597L143.393,50.597z"/>
	<g>
		<path fill="#FFFFFF" d="M139.6,65.291c1.164-0.284,3.049-0.466,4.856-0.466c1.522,0,3.384,0.182,4.776,1.061
			c1.315,0.8,2.144,2.142,2.144,3.949c0,2.299-1.006,3.979-2.479,5.062c-1.446,1.084-3.484,1.604-5.681,1.604
			c-0.594,0-1.084-0.078-1.396-0.106l-1.16,5.966h-4.286L139.6,65.291z M142.468,72.834c0.308,0.047,0.673,0.128,1.316,0.128
			c1.937,0,3.176-1.293,3.176-2.715c0-1.496-1.084-1.937-2.298-1.937c-0.62,0-1.084,0.025-1.344,0.08L142.468,72.834z"/>
		<path fill="#FFFFFF" d="M151.426,82.359l1.395-7.281c0.361-2.04,0.516-4.361,0.646-5.423h3.796
			c-0.052,0.854-0.104,1.706-0.182,2.557h0.078c0.93-1.678,2.35-2.84,4.105-2.84c0.258,0,0.49,0,0.75,0.025l-0.877,4.288
			c-0.156,0-0.363-0.028-0.57-0.028c-2.606,0-3.486,2.066-3.924,4.364l-0.801,4.338H151.426z"/>
		<path fill="#FFFFFF" d="M175.234,74.59c0,4.93-3.357,8.054-7.826,8.054c-3.252,0-5.578-1.962-5.578-5.266
			c0-4.469,3.152-8.007,7.827-8.007C173.064,69.371,175.234,71.592,175.234,74.59z M166.402,77.3c0,1.24,0.568,2.014,1.625,2.014
			c1.809,0,2.635-2.866,2.635-4.676c0-1.056-0.438-1.937-1.574-1.937C167.176,72.701,166.402,75.75,166.402,77.3z"/>
		<path fill="#FFFFFF" d="M177.814,82.359l1.344-7.021l-3.436-10.383h4.725l0.853,3.899c0.284,1.42,0.464,2.271,0.646,3.252h0.051
			c0.568-1.031,1.061-1.985,1.732-3.252l2.142-3.899h5.269l-7.566,10.252l-1.342,7.151H177.814z"/>
		<path fill="#FFFFFF" d="M201.827,69.655l-1.574,8.366c-0.336,1.704-0.542,3.15-0.722,4.338h-3.877l0.183-1.936h-0.052
			c-1.37,1.65-2.866,2.22-4.338,2.22c-2.194,0-3.229-1.314-3.229-3.51c0-0.728,0.104-1.524,0.26-2.429l1.34-7.051h4.418
			l-1.269,6.688c-0.102,0.516-0.18,1.159-0.18,1.6c0,0.598,0.233,1.14,0.956,1.14c1.138,0,2.145-1.396,2.607-3.797l1.061-5.631
			L201.827,69.655L201.827,69.655z"/>
		<path fill="#FFFFFF" d="M202.938,82.359l1.574-8.365c0.336-1.706,0.541-3.149,0.723-4.339h3.873l-0.207,1.963h0.053
			c1.214-1.603,2.738-2.246,4.338-2.246c2.322,0,3.279,1.445,3.279,3.463c0,0.566-0.104,1.572-0.205,2.168l-1.42,7.356h-4.393
			l1.293-6.894c0.077-0.412,0.129-0.904,0.129-1.318c0-0.746-0.233-1.237-0.955-1.237c-1.086,0-2.17,1.395-2.66,4.027l-1.034,5.422
			H202.938z"/>
		<path fill="#FFFFFF" d="M219.072,83.626c0.697,0.388,2.351,0.646,3.307,0.646c1.73,0,3.021-0.722,3.436-2.894l0.156-0.696h-0.054
			c-0.931,1.032-1.912,1.524-3.306,1.524c-2.506,0-4.133-1.988-4.156-4.572c-0.027-4.13,2.888-8.263,8.674-8.263
			c1.938,0,3.512,0.283,4.984,0.876l-1.91,10.435c-0.414,2.194-1.112,4.39-2.713,5.63c-1.42,1.11-3.305,1.446-5.111,1.446
			c-1.756,0-3.384-0.312-4.288-0.774L219.072,83.626z M227.337,72.857c-0.231-0.078-0.646-0.13-1.006-0.13
			c-1.858,0-3.229,2.17-3.229,4.236c0,1.239,0.596,1.884,1.422,1.884c0.929,0,1.885-0.954,2.244-2.942L227.337,72.857z"/>
		<path fill="#FFFFFF" d="M241.125,82.359c0.025-0.724,0.076-1.472,0.102-2.195h-0.051c-1.084,1.889-2.66,2.479-4.003,2.479
			c-2.272,0-3.924-1.756-3.924-4.518c0-4.234,2.687-8.755,9.218-8.755c1.652,0,3.408,0.336,4.545,0.695l-1.369,6.664
			c-0.26,1.368-0.543,3.978-0.492,5.628L241.125,82.359L241.125,82.359z M242.055,72.756c-0.285-0.055-0.596-0.08-0.802-0.08
			c-2.04,0-3.41,2.764-3.41,4.624c0,1.186,0.519,1.806,1.267,1.806c0.801,0,1.859-0.798,2.429-3.796L242.055,72.756z"/>
		<path fill="#FFFFFF" d="M248.404,78.54c0.775,0.358,2.246,0.902,3.562,0.902c0.879,0,1.24-0.338,1.24-0.75
			c0-0.464-0.389-0.828-1.498-1.314c-1.445-0.7-2.842-1.759-2.842-3.438c0-2.788,2.48-4.569,5.992-4.569
			c1.627,0,2.84,0.309,3.537,0.672l-1.008,3.071c-0.595-0.258-1.521-0.542-2.685-0.542c-0.854,0-1.396,0.262-1.396,0.776
			c0,0.336,0.465,0.722,1.447,1.162c1.367,0.67,3.045,1.598,3.045,3.51c0,2.996-2.609,4.622-6.248,4.597
			c-1.705-0.053-3.355-0.438-4.184-1.059L248.404,78.54z"/>
	</g>
	<g>
		<path fill="#FFFFFF" d="M195.577,51.234h4.635l-0.282,1.443h-2.933l-0.364,1.856h2.76l-0.283,1.431h-2.744l-0.602,3.183h-1.691
			L195.577,51.234z"/>
		<path fill="#FFFFFF" d="M203.227,51.234l-0.869,4.556c-0.059,0.271-0.08,0.588-0.08,0.938c0,0.636,0.389,1.128,1.146,1.128
			c0.883,0,1.471-0.588,1.752-2.054l0.867-4.567h1.691l-0.858,4.496c-0.456,2.396-1.513,3.543-3.662,3.543
			c-1.63,0-2.628-0.831-2.628-2.521c0-0.341,0.046-0.728,0.117-1.104l0.833-4.414H203.227z"/>
		<path fill="#FFFFFF" d="M207.754,59.147l1.504-7.913h1.984l1.045,3.019c0.316,1.011,0.529,1.832,0.715,2.699h0.037
			c0.035-0.81,0.139-1.679,0.361-2.841l0.541-2.877h1.574l-1.49,7.913h-1.752l-1.101-3.155c-0.351-1.069-0.565-1.787-0.774-2.762
			l-0.037,0.015c-0.092,0.761-0.283,1.888-0.516,3.133l-0.519,2.771L207.754,59.147L207.754,59.147z"/>
		<path fill="#FFFFFF" d="M217.062,51.354c0.668-0.119,1.418-0.176,2.182-0.176c1.232,0,2.22,0.28,2.888,0.856
			c0.636,0.528,1.034,1.312,1.048,2.476c0,1.526-0.646,2.854-1.635,3.638c-0.916,0.729-2.078,1.046-3.79,1.046
			c-0.952,0-1.772-0.069-2.159-0.142L217.062,51.354z M217.531,57.786c0.199,0.033,0.447,0.045,0.738,0.045
			c0.916,0,1.725-0.327,2.242-0.929c0.541-0.608,0.822-1.431,0.822-2.383c0-1.242-0.691-1.982-2.09-1.982
			c-0.293,0-0.538,0.013-0.713,0.048L217.531,57.786z"/>
		<path fill="#FFFFFF" d="M225.57,57.092l-0.938,2.056h-1.795l3.851-7.913h2.168l0.931,7.913h-1.772l-0.166-2.056H225.57z
			 M227.779,55.802l-0.156-1.701c-0.035-0.437-0.08-1.069-0.115-1.551h-0.023c-0.198,0.48-0.424,1.091-0.635,1.551l-0.785,1.701
			H227.779z"/>
		<path fill="#FFFFFF" d="M236.238,58.924c-0.422,0.187-1.141,0.341-2.088,0.341c-2.092,0-3.498-1.269-3.498-3.355
			c0-1.773,0.797-3.158,1.994-3.956c0.82-0.577,1.795-0.847,2.912-0.847c0.854,0,1.502,0.199,1.725,0.341l-0.457,1.372
			c-0.234-0.114-0.75-0.256-1.434-0.256c-0.681,0-1.326,0.21-1.809,0.609c-0.667,0.539-1.091,1.443-1.091,2.545
			c0,1.257,0.704,2.103,2.103,2.103c0.551,0,1.104-0.095,1.502-0.258L236.238,58.924z"/>
		<path fill="#FFFFFF" d="M240.299,51.234l-1.504,7.913h-1.689l1.504-7.913H240.299z"/>
		<path fill="#FFFFFF" d="M248.232,54.406c0,1.441-0.506,2.839-1.41,3.73c-0.738,0.716-1.736,1.137-2.922,1.137
			c-2.053,0-3.205-1.453-3.205-3.296c0-1.433,0.529-2.853,1.457-3.744c0.738-0.704,1.748-1.127,2.887-1.127
			C247.131,51.106,248.232,52.516,248.232,54.406z M243.479,53.114c-0.635,0.622-0.984,1.854-0.984,2.806
			c0,1.114,0.503,1.946,1.654,1.946c0.492,0,0.959-0.222,1.324-0.573c0.621-0.623,0.965-1.927,0.965-2.844
			c0-0.983-0.354-1.934-1.599-1.934C244.311,52.516,243.842,52.739,243.479,53.114z M247.326,49.299l-1.547,1.479h-1.434
			l1.104-1.479H247.326z"/>
		<path fill="#FFFFFF" d="M248.629,59.147l1.502-7.913h1.984l1.045,3.019c0.316,1.011,0.527,1.832,0.717,2.699h0.035
			c0.033-0.81,0.141-1.679,0.361-2.841l0.539-2.877h1.571l-1.487,7.913h-1.75l-1.103-3.155c-0.353-1.069-0.563-1.787-0.772-2.762
			l-0.035,0.015c-0.096,0.761-0.283,1.888-0.521,3.133l-0.517,2.771L248.629,59.147L248.629,59.147z"/>
	</g>
	<g>
		<path fill="#FFFFFF" d="M4.361,73.731c1.936,1.159,5.342,2.09,8.052,2.09c5.107,0,7.893-2.941,7.893-7.275
			c0-4.181-2.554-6.579-6.812-9.52c-5.804-3.716-9.83-8.903-9.83-14.554c0-8.128,5.496-14.552,15.25-14.552
			c3.328,0,6.346,1.006,7.74,1.856l-1.47,7.122c-1.472-0.93-3.64-1.779-6.426-1.779c-4.722,0-6.965,3.173-6.965,6.347
			c0,4.025,2.09,5.882,7.429,9.287c6.58,4.336,9.212,9.365,9.212,14.938c0,9.365-6.656,15.325-16.021,15.325
			c-3.872,0-7.82-1.082-9.444-2.166L4.361,73.731z"/>
		<path fill="#FFFFFF" d="M44.251,30.385v52.17H35.97v-52.17H44.251z"/>
		<path fill="#FFFFFF" d="M82.05,81.163c-2.244,0.928-6.502,1.854-10.14,1.854c-5.34,0-9.751-1.47-13.235-5.106
			c-4.102-4.259-6.58-11.767-6.501-20.979C52.328,37.35,63.009,29.92,73.227,29.92c3.638,0,6.426,0.696,8.052,1.548l-1.626,7.122
			c-1.394-0.774-3.33-1.24-5.959-1.24c-6.736,0-12.928,4.954-12.928,19.661c0,14.166,5.418,18.963,10.914,18.963
			c1.394,0,2.246-0.153,2.71-0.386V57.484l7.662-0.018v23.697H82.05z"/>
		<path fill="#FFFFFF" d="M99.441,69.01l-2.786,13.545h-8.05l11.609-52.17h9.676l10.759,52.17H112.6l-2.786-13.545H99.441z
			 M108.962,62.508l-2.168-11.998c-0.696-3.405-1.392-8.205-1.934-11.842h-0.232c-0.542,3.637-1.318,8.668-1.936,11.92l-2.322,11.92
			H108.962z"/>
	</g>
</g>
<g>
	<rect x="-157.2" y="-37.715" fill="none" width="162.921" height="41.824"/>
</g>
</svg>
