<svg xmlns="http://www.w3.org/2000/svg" xmlns:xlink="http://www.w3.org/1999/xlink" viewBox="0 0 255.78 85.54"><defs><style>.cls-1{fill-rule:evenodd;fill:url(#linear-gradient);}.cls-2{fill:#444242;}.cls-3{fill:url(#linear-gradient-2);}.cls-4{fill:#5b5b5f;}</style><linearGradient id="linear-gradient" x1="204.43" y1="8.45" x2="222.02" y2="60.01" gradientTransform="matrix(1.07, 0.15, -0.15, 1.06, -32.23, -35.49)" gradientUnits="userSpaceOnUse"><stop offset="0.13" stop-color="#55874b"/><stop offset="0.23" stop-color="#669243"/><stop offset="0.42" stop-color="#94ad2f"/><stop offset="0.69" stop-color="#dcd90f"/><stop offset="0.81" stop-color="#feee00"/></linearGradient><linearGradient id="linear-gradient-2" x1="198.91" y1="7.54" x2="211.29" y2="53.75" gradientTransform="matrix(1.01, 0.06, -0.07, 1.03, -11.93, -17.16)" gradientUnits="userSpaceOnUse"><stop offset="0" stop-color="#211915"/><stop offset="0.16" stop-color="#2e2926"/><stop offset="0.41" stop-color="#3e3b3b"/><stop offset="0.58" stop-color="#444242"/></linearGradient></defs><title>Recurso 1</title><g id="Capa_2" data-name="Capa 2"><g id="Layer_1" data-name="Layer 1"><path class="cls-1" d="M196.36,0c24-.11,39,13.09,48,31.15-7.88-5.52-32.89-20.23-40-12.36-3.22,3.57-6.35,7.06-9.14,8.83-5.35-4.67-9.79-4.91-12.81-1.46-2.59,2.95-2.43,3.75-6.83,8.06-.19.19-1,1.34-1.19,1.17-2.77-2.36-7-7.16-12.22-6.25S150.72,40,143.78,45.69c-3.6,2.93-3.86,4.28-4.72,5.29C143.11,23.8,172.31.12,196.36,0Z"/><path class="cls-2" d="M153.65,29.47s0-.05,0,0l0,0Z"/><path class="cls-3" d="M201.38,2a62.39,62.39,0,0,1,53.19,34.56c.63,0,1.27.06,1.21,1.31s-.6,1.23-1.19,1.21a1,1,0,0,1-1.1,0c-5.23-3.85-17.46-11.71-28-15.38-5.59-1.94-10.65-2.71-13.75-1l-.09.08a75.74,75.74,0,0,1-9.71,8.44l-.87.61.78.87c.41.48.83,1-.13,1.77s-1.37.34-1.79-.13-1-1.08-1.44-1.55a1.17,1.17,0,0,1-.54-.53l-.08-.08c-2.48-2.16-4.59-3-6.46-3a7,7,0,0,0-3.69,1.16c-.24.17-.48.36-.7.56a41.82,41.82,0,0,0-4.44,4.78,55.78,55.78,0,0,1-4.61,5,39.55,39.55,0,0,0,4.8,3.57c.54.33,1.08.66.41,1.73s-1.21.74-1.75.41a43.68,43.68,0,0,1-5.53-4.16c-.28,0-.6-.12-1-.61a2.33,2.33,0,0,1-.33-.51l0,0-.19-.18-.25-.22c-2-1.83-4.65-4.18-7.33-5.38a7.4,7.4,0,0,0-3.63-.73,6.44,6.44,0,0,0-2.9,1.38S143,49.17,140,51.91a.77.77,0,0,1-.61.59l-.17.17a1.12,1.12,0,0,1-1.85-1A62.51,62.51,0,0,1,201.38,2Zm-61,46.43c5.72-5,14.94-11.83,17.71-14.06l0,0c6.41-5.63,11.37-1.21,17.25,4l.67.6a38.62,38.62,0,0,0,3.12-3.27l.49-.58,1.52-1.79a38.52,38.52,0,0,1,4.17-4.41c3.84-3.28,8-4.33,13.81,1,3.22-1.75,6.91-5.31,10.69-9,7.37-7.12,29.68,5.44,40.72,12.83A60.36,60.36,0,0,0,140.42,48.38Z"/><path class="cls-2" d="M136.63,63.08a22.89,22.89,0,0,1,4.86-.47,9.17,9.17,0,0,1,4.78,1.06,4.41,4.41,0,0,1,2.14,3.95,6,6,0,0,1-2.48,5.06,9.52,9.52,0,0,1-5.68,1.6,12.89,12.89,0,0,1-1.4-.11l-1.16,6H133.4Zm2.87,7.54a7.11,7.11,0,0,0,1.32.13A2.91,2.91,0,0,0,144,68c0-1.5-1.08-1.94-2.3-1.94a7.65,7.65,0,0,0-1.34.08Z"/><path class="cls-2" d="M148.46,80.14l1.39-7.28c.36-2,.52-4.36.65-5.42h3.8c-.05.85-.1,1.71-.18,2.56h.08a4.83,4.83,0,0,1,4.11-2.84,7.15,7.15,0,0,1,.75,0l-.88,4.29c-.16,0-.36,0-.57,0-2.61,0-3.49,2.07-3.92,4.36l-.8,4.34Z"/><path class="cls-2" d="M172.27,72.37c0,4.93-3.36,8.05-7.83,8.05-3.25,0-5.58-2-5.58-5.27a7.67,7.67,0,0,1,7.83-8C170.1,67.16,172.27,69.38,172.27,72.37Zm-8.83,2.71c0,1.24.57,2,1.63,2,1.81,0,2.63-2.87,2.63-4.68,0-1.06-.44-1.94-1.57-1.94C164.21,70.49,163.43,73.53,163.43,75.08Z"/><path class="cls-2" d="M174.85,80.14l1.34-7-3.44-10.38h4.73l.85,3.9c.28,1.42.46,2.27.65,3.25h0c.57-1,1.06-2,1.73-3.25l2.14-3.9h5.27L180.6,73l-1.34,7.15Z"/><path class="cls-2" d="M198.86,67.44l-1.57,8.37c-.34,1.7-.54,3.15-.72,4.34h-3.88l.18-1.94h-.05a5.46,5.46,0,0,1-4.34,2.22c-2.19,0-3.23-1.32-3.23-3.51a14.6,14.6,0,0,1,.26-2.43l1.34-7h4.42L190,74.13a9.33,9.33,0,0,0-.18,1.6c0,.6.23,1.14,1,1.14,1.14,0,2.14-1.4,2.61-3.8l1.06-5.63Z"/><path class="cls-2" d="M200,80.14l1.57-8.37c.34-1.71.54-3.15.72-4.34h3.87l-.21,2H206a5.26,5.26,0,0,1,4.34-2.25c2.32,0,3.28,1.45,3.28,3.46a16.05,16.05,0,0,1-.21,2.17L212,80.14h-4.39l1.29-6.89a7.51,7.51,0,0,0,.13-1.32c0-.75-.23-1.24-1-1.24-1.09,0-2.17,1.39-2.66,4l-1,5.42Z"/><path class="cls-2" d="M216.1,81.41a8.85,8.85,0,0,0,3.31.65,3.14,3.14,0,0,0,3.43-2.89l.16-.7h-.05A4.12,4.12,0,0,1,219.64,80c-2.51,0-4.13-2-4.16-4.57,0-4.13,2.89-8.26,8.67-8.26a13,13,0,0,1,5,.88l-1.91,10.43c-.41,2.19-1.11,4.39-2.71,5.63a8.23,8.23,0,0,1-5.11,1.45,10.35,10.35,0,0,1-4.29-.77Zm8.26-10.77a3.64,3.64,0,0,0-1-.13c-1.86,0-3.23,2.17-3.23,4.24,0,1.24.6,1.88,1.42,1.88s1.88-1,2.24-2.94Z"/><path class="cls-2" d="M238.16,80.14c0-.72.08-1.47.1-2.2h-.05a4.52,4.52,0,0,1-4,2.48c-2.27,0-3.92-1.76-3.92-4.52,0-4.23,2.69-8.75,9.22-8.75a16.22,16.22,0,0,1,4.54.7l-1.37,6.66a31.87,31.87,0,0,0-.49,5.63Zm.93-9.6a4.63,4.63,0,0,0-.8-.08c-2,0-3.41,2.76-3.41,4.62,0,1.19.52,1.81,1.27,1.81s1.86-.8,2.43-3.8Z"/><path class="cls-2" d="M245.44,76.32a9.37,9.37,0,0,0,3.56.9c.88,0,1.24-.34,1.24-.75s-.39-.83-1.5-1.32c-1.45-.7-2.84-1.76-2.84-3.44,0-2.79,2.48-4.57,6-4.57a8,8,0,0,1,3.54.67l-1,3.07a6.78,6.78,0,0,0-2.68-.54c-.85,0-1.39.26-1.39.78,0,.34.46.72,1.45,1.16,1.37.67,3,1.6,3,3.51,0,3-2.61,4.62-6.25,4.6a8.13,8.13,0,0,1-4.18-1.06Z"/><path class="cls-2" d="M192.61,49h4.63L197,50.46H194l-.36,1.86h2.76l-.28,1.43h-2.74l-.6,3.18H191.1Z"/><path class="cls-2" d="M200.26,49l-.87,4.55a4.54,4.54,0,0,0-.08.94,1.06,1.06,0,0,0,1.15,1.13c.88,0,1.47-.59,1.75-2.05l.87-4.57h1.69l-.86,4.5c-.46,2.4-1.51,3.54-3.66,3.54a2.32,2.32,0,0,1-2.63-2.52,6.13,6.13,0,0,1,.12-1.1l.83-4.41Z"/><path class="cls-2" d="M204.78,56.93l1.5-7.91h2l1,3c.32,1,.53,1.83.72,2.7h0a19,19,0,0,1,.36-2.84L211,49h1.57l-1.49,7.91H209.3l-1.1-3.16a24.47,24.47,0,0,1-.77-2.76h0c-.09.76-.28,1.89-.52,3.13l-.52,2.77Z"/><path class="cls-2" d="M214.09,49.14a12.64,12.64,0,0,1,2.18-.18,4.34,4.34,0,0,1,2.89.86,3.07,3.07,0,0,1,1,2.48,4.61,4.61,0,0,1-1.63,3.64,5.74,5.74,0,0,1-3.79,1,13.93,13.93,0,0,1-2.16-.14Zm.47,6.43a4.57,4.57,0,0,0,.74,0,2.9,2.9,0,0,0,2.24-.93,3.51,3.51,0,0,0,.82-2.38,1.83,1.83,0,0,0-2.09-2,3.92,3.92,0,0,0-.71,0Z"/><path class="cls-2" d="M222.6,54.88l-.94,2.06h-1.79L223.72,49h2.17l.93,7.91H225l-.16-2.06Zm2.21-1.29-.16-1.7c0-.44-.08-1.07-.12-1.55h0c-.2.48-.42,1.09-.63,1.55l-.79,1.7Z"/><path class="cls-2" d="M233.27,56.71a5.44,5.44,0,0,1-2.09.34,3.21,3.21,0,0,1-3.5-3.36,4.61,4.61,0,0,1,2-4,4.93,4.93,0,0,1,2.91-.85,3.74,3.74,0,0,1,1.72.34l-.46,1.37a3.54,3.54,0,0,0-1.43-.26,2.83,2.83,0,0,0-1.81.61,3.2,3.2,0,0,0-1.09,2.54,1.92,1.92,0,0,0,2.1,2.1,4.17,4.17,0,0,0,1.5-.26Z"/><path class="cls-2" d="M237.33,49l-1.5,7.91h-1.69l1.5-7.91Z"/><path class="cls-2" d="M245.26,52.19a5.29,5.29,0,0,1-1.41,3.73,4.1,4.1,0,0,1-2.92,1.14,3.07,3.07,0,0,1-3.21-3.3A5.27,5.27,0,0,1,239.18,50a4.14,4.14,0,0,1,2.89-1.13A3,3,0,0,1,245.26,52.19Zm-4.75-1.29a4.3,4.3,0,0,0-1,2.8c0,1.11.5,1.95,1.65,1.95a1.93,1.93,0,0,0,1.33-.57,4.53,4.53,0,0,0,1-2.84c0-1-.35-1.93-1.6-1.93A1.88,1.88,0,0,0,240.51,50.9Zm3.85-3.82-1.55,1.48h-1.43l1.1-1.48Z"/><path class="cls-2" d="M245.66,56.93l1.5-7.91h2l1,3c.32,1,.53,1.83.72,2.7h0a19.3,19.3,0,0,1,.36-2.84l.54-2.88h1.57l-1.49,7.91h-1.75l-1.1-3.16A24.78,24.78,0,0,1,248.3,51h0c-.1.76-.28,1.89-.52,3.13l-.52,2.77Z"/><path class="cls-4" d="M1.39,71.52a17.74,17.74,0,0,0,8.05,2.09c5.11,0,7.89-2.94,7.89-7.28,0-4.18-2.55-6.58-6.81-9.52C4.72,53.1.7,47.91.7,42.26c0-8.13,5.5-14.55,15.25-14.55a16.35,16.35,0,0,1,7.74,1.86l-1.47,7.12a12,12,0,0,0-6.43-1.78c-4.72,0-7,3.17-7,6.35,0,4,2.09,5.88,7.43,9.29,6.58,4.34,9.21,9.37,9.21,14.94,0,9.37-6.66,15.33-16,15.33-3.87,0-7.82-1.08-9.44-2.17Z"/><path class="cls-4" d="M41.28,28.17V80.34H33V28.17Z"/><path class="cls-4" d="M79.08,78.95A30.43,30.43,0,0,1,68.94,80.8c-5.34,0-9.75-1.47-13.24-5.11-4.1-4.26-6.58-11.77-6.5-21,.15-19.58,10.83-27,21.05-27a18.16,18.16,0,0,1,8.05,1.55l-1.63,7.12a12.22,12.22,0,0,0-6-1.24c-6.74,0-12.93,5-12.93,19.66,0,14.17,5.42,19,10.91,19a6.58,6.58,0,0,0,2.71-.39V55.27l7.66,0Z"/><path class="cls-4" d="M96.47,66.79,93.69,80.34h-8L97.25,28.17h9.68l10.76,52.17h-8l-2.79-13.54Zm9.52-6.5-2.17-12c-.7-3.41-1.39-8.21-1.93-11.84h-.23c-.54,3.64-1.32,8.67-1.94,11.92L97.4,60.29Z"/></g></g></svg>